<svg width="30" height="30" viewBox="0 0 30 30" fill="none" xmlns="http://www.w3.org/2000/svg">
<path d="M3 2.74097C2.44772 2.74097 2 3.18868 2 3.74097C2 4.29325 2.44772 4.74097 3 4.74097V2.74097ZM5.86567 3.74097L6.8309 3.47955C6.71284 3.04365 6.31728 2.74097 5.86567 2.74097V3.74097ZM10.5224 20.935L9.55716 21.1964C9.68743 21.6774 10.1519 21.9891 10.6464 21.9273L10.5224 20.935ZM24.8507 19.144L24.9748 20.1362C25.3995 20.0831 25.7433 19.7657 25.83 19.3466L24.8507 19.144ZM27 8.75589L27.9793 8.9585C28.0402 8.66398 27.9653 8.35768 27.7754 8.12447C27.5855 7.89125 27.3007 7.75589 27 7.75589V8.75589ZM7.22388 8.75589L6.25865 9.01731V9.01731L7.22388 8.75589ZM3 4.74097H5.86567V2.74097H3V4.74097ZM10.6464 21.9273L24.9748 20.1362L24.7267 18.1517L10.3984 19.9427L10.6464 21.9273ZM25.83 19.3466L27.9793 8.9585L26.0207 8.55329L23.8715 18.9413L25.83 19.3466ZM4.90044 4.00238L6.25865 9.01731L8.18911 8.49448L6.8309 3.47955L4.90044 4.00238ZM6.25865 9.01731L9.55716 21.1964L11.4876 20.6736L8.18911 8.49448L6.25865 9.01731ZM27 7.75589H7.22388V9.75589H27V7.75589ZM14 25.6251C14 26.1083 13.6082 26.5001 13.125 26.5001V28.5001C14.7128 28.5001 16 27.2129 16 25.6251H14ZM13.125 26.5001C12.6418 26.5001 12.25 26.1083 12.25 25.6251H10.25C10.25 27.2129 11.5372 28.5001 13.125 28.5001V26.5001ZM12.25 25.6251C12.25 25.1418 12.6418 24.7501 13.125 24.7501V22.7501C11.5372 22.7501 10.25 24.0372 10.25 25.6251H12.25ZM13.125 24.7501C13.6082 24.7501 14 25.1418 14 25.6251H16C16 24.0372 14.7128 22.7501 13.125 22.7501V24.7501ZM24 25.6251C24 26.1083 23.6082 26.5001 23.125 26.5001V28.5001C24.7128 28.5001 26 27.2129 26 25.6251H24ZM23.125 26.5001C22.6418 26.5001 22.25 26.1083 22.25 25.6251H20.25C20.25 27.2129 21.5372 28.5001 23.125 28.5001V26.5001ZM22.25 25.6251C22.25 25.1418 22.6418 24.7501 23.125 24.7501V22.7501C21.5372 22.7501 20.25 24.0372 20.25 25.6251H22.25ZM23.125 24.7501C23.6082 24.7501 24 25.1418 24 25.6251H26C26 24.0372 24.7128 22.7501 23.125 22.7501V24.7501Z" fill="white"/>
</svg>
