<svg width="95" height="30" viewBox="0 0 95 30" fill="none" xmlns="http://www.w3.org/2000/svg">
<g clip-path="url(#clip0_86_2771)">
<path d="M10.2716 4.62109H29.9072L31.2927 4.71942L32.3915 4.86688L33.2993 5.11271L34.0637 5.45682L34.5892 5.80094L35.258 6.34172L35.688 6.78416L36.118 7.42323L36.5002 8.20979L36.7391 9.04552L36.8346 9.63542V11.1103L36.6913 12.2901L36.4046 13.6666L36.0702 14.7972L35.6402 15.8296L35.1625 16.6653L34.6847 17.3536L34.2547 17.8943L33.6337 18.5826L33.1081 19.025L32.5349 19.4675L31.7705 19.9099L31.0538 20.254L30.1461 20.549L28.9995 20.7948L28.1395 20.8931L27.184 20.9423H23.7442L23.2187 23.1053L21.6421 29.8894L21.5943 29.9878H16.578L16.6735 29.447L17.629 25.3175L18.6323 20.9914L19.8267 15.8296L21.0688 10.4712H26.133L26.0374 11.0119L25.2253 14.5515L24.8431 16.2229L24.7953 16.3212L28.3784 16.272L29.2861 16.1246L30.0505 15.8296L30.5283 15.5346L31.0061 15.1414L31.4838 14.5515L31.9138 13.7649L32.2482 12.8308L32.3915 11.9459V11.5035L32.2482 10.7661L31.9138 10.0779L31.6271 9.68459L31.1494 9.34047L30.5761 9.09469L30.0028 8.94719H9.88944L9.50724 9.14385L9.31612 9.38964L9.2206 9.83208L9.31612 10.1762L9.55502 10.3728L9.93722 10.4712L13.9981 10.5203L14.8581 10.6186L15.6702 10.8644L16.4824 11.3069L16.9602 11.7493L17.3424 12.1918L17.7246 12.9783L17.9157 13.6174L18.0112 14.2073V15.1414L17.8201 16.3704L17.5335 17.3536L17.2468 18.091L16.8646 18.7301L16.3869 19.32L15.718 19.8607L14.8103 20.3524L13.9503 20.6473L13.0426 20.844L12.0871 20.9423H0L0.429981 19.7133L1.24216 17.5011L1.57658 16.567L1.62436 16.5179L11.5616 16.4687L12.1826 16.272L12.4215 16.0263L12.5171 15.7805V15.338L12.326 15.0431L12.0871 14.8956L11.5138 14.7972L7.64402 14.7481L6.6885 14.5515L5.92409 14.2565L5.39859 13.9615L4.92083 13.5682L4.49085 13.1258L4.10865 12.4867L3.82201 11.6018L3.72645 11.1103L3.67867 10.6186V9.78292L3.82201 8.94719L4.10865 8.11146L4.44307 7.47239L4.87305 6.88245L5.20747 6.48917L5.73301 6.04672L6.44964 5.55515L7.3096 5.16187L8.26508 4.86688L9.45946 4.67026L10.2716 4.62109Z" fill="#60A5FA"/>
<path d="M69.9426 -0.000244141H74.959L74.9112 0.442203L73.9557 4.52251L73.908 4.66997H77.73L77.5389 5.65319L76.7267 9.19273L76.6789 9.29101H72.8091L72.7614 9.73346L71.7581 14.2562L71.6625 14.8461V15.3377L71.8058 15.8293L71.997 16.1243L72.3792 16.3701L73.1436 16.5176H84.7529L85.5173 16.4192L86.0428 16.2226L86.2817 15.9277L86.3295 15.731V15.3377L86.1862 15.0428L85.804 14.8461L85.5651 14.797L81.8386 14.7478L80.6442 14.5512L79.641 14.2071L79.0199 13.8629L78.5422 13.4205L78.2077 12.978L77.8733 12.2898L77.6822 11.6507L77.5866 10.8641V9.93012L77.6822 9.14356L77.9688 8.16034L78.351 7.32461L78.781 6.68554L79.211 6.19393L79.8798 5.70236L80.692 5.25991L81.5998 4.91579L82.5075 4.71913L82.8897 4.66997H94.9768L94.499 5.99731L93.5913 8.40616L93.4002 8.84861L84.0363 8.89773L83.3674 8.99606L83.0808 9.19273L82.9374 9.38935L82.8897 9.53684V10.0285L83.033 10.2742L83.463 10.4217L83.8452 10.4709L87.4761 10.52L88.5749 10.6675L89.4826 10.9133L90.247 11.3066L90.8203 11.8474L91.2025 12.339L91.4892 12.978L91.6803 13.7646L91.7281 14.2071V15.2394L91.5847 16.1735L91.3936 16.8617L91.107 17.5499L90.6292 18.3365L90.1993 18.8773L89.5304 19.5655L88.8616 20.0079L88.1927 20.3029L87.1417 20.5979L85.9951 20.7945L84.2274 20.942H70.3248L69.226 20.8928L68.4616 20.7453L67.8405 20.4996L67.315 20.1063L67.0283 19.8605L66.5506 19.2214L66.3117 18.7298L66.1206 17.9432V16.5667L66.2639 15.5835L67.6016 9.88096L68.8438 4.52251L69.4171 2.11366L69.8948 0.0489213L69.9426 -0.000244141Z" fill="#60A5FA"/>
<path d="M65.882 4.57178H67.4586L67.363 5.16172L66.4076 9.24199L66.3598 9.34032L65.0221 9.38949L63.971 9.53694L63.111 9.83193L62.6333 10.1269L62.3466 10.471L61.9644 11.2576L61.5822 12.4866L60.7701 15.9278L59.719 20.4505L59.6235 20.893L59.5757 20.9421H54.6071L54.5593 20.8438L55.7537 15.7803L57.0914 10.0777L57.4258 9.09454L57.808 8.20964L58.238 7.37391L58.7158 6.73485L59.098 6.34157L59.719 5.84995L60.3401 5.45667L61.0567 5.11256L61.9644 4.86673L63.541 4.67011L64.2576 4.62094L65.882 4.57178Z" fill="#60A5FA"/>
<path fill-rule="evenodd" clip-rule="evenodd" d="M31.0064 22.0718C31.016 22.0587 31.0692 21.9841 31.1862 21.9841H32.4207C32.474 21.9841 32.4979 22.0167 32.5023 22.0226C32.5067 22.0285 32.5306 22.0608 32.5182 22.1157C31.9504 24.583 31.3829 27.0504 30.8151 29.5178C30.813 29.5264 30.8026 29.5726 30.7564 29.6109C30.7104 29.6494 30.6657 29.6494 30.6571 29.6494H29.4122C29.3589 29.6494 29.3348 29.6167 29.3306 29.6109C29.3262 29.605 29.302 29.5726 29.3148 29.5178C29.6918 27.879 30.0688 26.24 30.4459 24.6012C30.4467 24.5977 30.456 24.5574 30.4347 24.5574C30.4298 24.5574 30.4134 24.5574 30.3846 24.5903C29.9919 25.094 29.5993 25.5977 29.2067 26.1015C29.1997 26.1098 29.1334 26.1889 29.1014 26.1889C29.0695 26.1889 29.0396 26.1095 29.0365 26.1015C28.8756 25.5977 28.715 25.094 28.5542 24.5903C28.5404 24.5574 28.523 24.5574 28.5191 24.5574C28.4978 24.5574 28.4887 24.5969 28.4877 24.6012C28.1106 26.24 27.7336 27.879 27.3566 29.5178C27.3547 29.5264 27.3441 29.5726 27.2981 29.6109C27.2518 29.6494 27.2071 29.6494 27.1986 29.6494H25.9536C25.9004 29.6494 25.8765 29.6167 25.8721 29.6109C25.8676 29.605 25.8435 29.5726 25.8562 29.5178C26.424 27.0504 26.9915 24.583 27.5592 22.1157C27.5611 22.1071 27.5717 22.0608 27.6177 22.0226C27.664 21.9841 27.7087 21.9841 27.717 21.9841H28.9408C29.0474 21.9841 29.0757 22.0592 29.0804 22.0718C29.2625 22.652 29.4447 23.2325 29.6268 23.813C29.6487 23.8566 29.6871 23.8167 29.6908 23.813C30.1294 23.2325 30.568 22.652 31.0064 22.0718ZM34.9199 23.9333C35.1161 23.9333 35.8302 23.9397 36.2727 24.4371C36.6957 24.9127 36.5881 25.517 36.5317 25.7619C36.2438 27.0138 35.9557 28.2659 35.6677 29.5178C35.6657 29.5264 35.655 29.5726 35.609 29.6109C35.563 29.6494 35.5183 29.6494 35.5098 29.6494H34.2646C34.2116 29.6494 34.1874 29.6167 34.183 29.6109C34.1786 29.605 34.1547 29.5726 34.1671 29.5178L34.2227 29.2769C34.2303 29.244 34.2144 29.2349 34.2116 29.2331C34.1926 29.2221 34.1666 29.2518 34.1638 29.255C33.7142 29.7076 33.127 29.732 32.9677 29.7368C32.8474 29.7368 32.349 29.7355 31.9787 29.3865C31.5991 29.0285 31.7973 28.2095 31.8337 28.0504C31.893 27.7932 32.0871 27.0207 32.7042 26.6488C33.3504 26.2598 34.209 26.2657 34.3727 26.2657H34.8622C34.869 26.2657 34.9155 26.2657 34.928 26.2109L34.9911 25.9373C34.9997 25.8991 35.0589 25.6416 34.9488 25.4499C34.8882 25.3448 34.7804 25.2582 34.6045 25.2582C34.5766 25.2582 34.4236 25.2582 34.2747 25.3731C34.25 25.3924 34.1258 25.4881 34.046 25.6964C34.0052 25.8277 33.8946 25.8277 33.8777 25.8277C33.4528 25.824 33.028 25.8205 32.6031 25.8167C32.5335 25.8167 32.4838 25.7796 32.5057 25.6852C32.6616 25.1592 32.9752 24.7189 33.4055 24.4095C33.8046 24.1229 34.321 23.9333 34.9199 23.9333ZM33.7529 28.5432C33.7935 28.5432 33.9977 28.5432 34.2337 28.3734C34.3909 28.2606 34.493 28.1018 34.5351 27.9191C34.5746 27.7475 34.6141 27.5761 34.6533 27.4044C34.666 27.3496 34.6182 27.3496 34.6128 27.3496H34.1765C33.9717 27.3496 33.8015 27.4189 33.6745 27.5194C33.5549 27.6141 33.4424 27.7649 33.392 27.9849C33.3845 28.0173 33.3289 28.2587 33.4292 28.401C33.5295 28.5432 33.7249 28.5432 33.7529 28.5432ZM40.1293 23.9552C40.1641 23.9552 40.4167 23.9552 40.551 24.0649C40.6235 24.1194 40.5822 24.2167 40.577 24.229C40.4115 24.656 40.2457 25.083 40.0802 25.51C40.0669 25.5518 40.0251 25.6264 39.911 25.5977C39.804 25.5539 39.6561 25.5539 39.6338 25.5539C39.474 25.5539 39.369 25.5903 39.3469 25.5977C39.092 25.6416 38.9226 25.851 38.8839 25.8988C38.8509 25.9397 38.6757 26.1563 38.5978 26.4956C38.3668 27.4994 38.1358 28.5031 37.905 29.5069C37.9029 29.5154 37.8923 29.5617 37.8463 29.5999C37.8003 29.6384 37.7554 29.6384 37.747 29.6384H36.5019C36.4486 29.6384 36.4247 29.6058 36.4203 29.5999C36.4158 29.594 36.3919 29.5617 36.4044 29.5069C36.815 27.7221 37.2258 25.9373 37.6363 24.1523C37.6384 24.1437 37.6491 24.0975 37.6951 24.0592C37.7411 24.021 37.7858 24.021 37.7943 24.021H39.0393C39.0925 24.021 39.1167 24.0534 39.1211 24.0592C39.1255 24.0654 39.1494 24.0975 39.1367 24.1523L39.0385 24.5793C39.0377 24.5833 39.0286 24.6231 39.0432 24.6288C39.058 24.6341 39.0839 24.6044 39.0868 24.6012C39.1637 24.4873 39.5189 23.9552 40.1293 23.9552ZM39.9472 29.6494C39.8941 29.6494 39.87 29.6167 39.8656 29.6109C39.8612 29.605 39.8372 29.5726 39.8497 29.5178C40.4175 27.0504 40.985 24.583 41.5528 22.1157C41.5548 22.1071 41.5652 22.0608 41.6115 22.0226C41.6575 21.9841 41.7022 21.9841 41.7107 21.9841H42.9557C43.0089 21.9841 43.0331 22.0167 43.0373 22.0226C43.0419 22.0285 43.0658 22.0608 43.0534 22.1157C42.7753 23.3237 42.4973 24.532 42.2193 25.74C42.2185 25.744 42.2094 25.7838 42.2294 25.7895C42.2494 25.7948 42.2751 25.7654 42.2782 25.7619C42.7135 25.2109 43.149 24.6598 43.5845 24.1084C43.5938 24.0953 43.6471 24.021 43.7643 24.021H45.0412C45.0492 24.021 45.1155 24.021 45.1321 24.0649C45.1488 24.1084 45.0971 24.1673 45.0911 24.1742C44.567 24.7873 44.0426 25.4007 43.5185 26.0138C43.487 26.0576 43.4896 26.0838 43.4902 26.0905C43.6619 27.2256 43.8334 28.3609 44.0049 29.4959C44.0062 29.5002 44.0106 29.5178 44.0031 29.5507C43.9805 29.6494 43.8768 29.6494 43.8633 29.6494H42.5758C42.5633 29.6494 42.4692 29.6494 42.4625 29.5397C42.4019 28.817 42.3411 28.0943 42.2803 27.3715C42.2772 27.3389 42.2606 27.3344 42.2572 27.3333C42.2372 27.328 42.2208 27.3574 42.219 27.3606C42.0581 27.5504 41.8976 27.7403 41.7367 27.9301C41.7333 27.9349 41.7055 27.974 41.7003 27.9959C41.5837 28.5031 41.467 29.0106 41.3503 29.5178C41.3483 29.5264 41.3376 29.5726 41.2916 29.6109C41.2456 29.6494 41.2009 29.6494 41.1923 29.6494H39.9472ZM48.8783 27.1855C48.8763 27.194 48.8659 27.2403 48.8196 27.2785C48.7736 27.317 48.7289 27.317 48.7204 27.317H46.3794C46.3724 27.317 46.3261 27.317 46.3134 27.3715L46.2204 27.7769C46.2121 27.8122 46.1572 28.0504 46.2593 28.2312C46.3118 28.324 46.4103 28.4119 46.5849 28.4119C46.6156 28.4119 46.7871 28.4119 46.9464 28.275C46.9721 28.2531 47.1054 28.1381 47.1958 27.9301C47.253 27.8205 47.3439 27.8205 47.3595 27.8205C47.7623 27.8424 48.1653 27.8643 48.5681 27.8863C48.6214 27.8863 48.6455 27.9189 48.6497 27.9245C48.6783 27.963 48.6554 28.021 48.6525 28.0288C48.5964 28.205 48.3768 28.8769 47.7896 29.3044C47.1958 29.7365 46.4529 29.7368 46.2801 29.7368C46.0782 29.7368 45.3294 29.7325 44.9131 29.2496C44.5049 28.7758 44.6423 28.113 44.6922 27.8972C44.8549 27.1892 45.0178 26.4812 45.1807 25.7729C45.3093 25.2143 45.6103 24.7574 46.0255 24.4371C46.6665 23.9429 47.4081 23.9333 47.6152 23.9333C47.8215 23.9333 48.5572 23.94 48.9732 24.4371C49.3783 24.9213 49.2546 25.5502 49.2034 25.7729C49.0951 26.2437 48.9867 26.7146 48.8783 27.1855ZM47.3104 25.2582C47.2088 25.2582 47.0519 25.2916 46.903 25.4336C46.8736 25.4617 46.719 25.6087 46.6561 25.8825L46.5579 26.3095C46.5452 26.3643 46.593 26.3643 46.5984 26.3643H47.5136C47.5204 26.3643 47.5669 26.3643 47.5794 26.3095L47.6776 25.8825C47.6856 25.8472 47.7407 25.6087 47.6373 25.4336C47.536 25.2617 47.3601 25.2582 47.3104 25.2582ZM52.5372 24.9737C52.5352 24.9822 52.5245 25.0282 52.4785 25.0667C52.4323 25.105 52.3876 25.105 52.3792 25.105H51.7832C51.7764 25.105 51.7302 25.105 51.7174 25.1598C51.5176 26.0285 51.3178 26.8972 51.118 27.7659C51.1102 27.7999 51.0449 28.0833 51.1341 28.2039C51.2235 28.3242 51.4326 28.3146 51.4602 28.3133H51.5347C51.5878 28.3133 51.6119 28.3459 51.6163 28.3518C51.6208 28.3576 51.6447 28.39 51.6322 28.4448C51.5498 28.8023 51.4674 29.1601 51.3853 29.5178C51.3833 29.5264 51.3726 29.5726 51.3266 29.6109C51.2804 29.6494 51.2357 29.6494 51.2274 29.6494H50.8017C50.7303 29.6494 50.0414 29.6627 49.6927 29.3809C49.3505 29.1044 49.5111 28.4601 49.5345 28.3571C49.7797 27.2913 50.025 26.2256 50.2701 25.1598C50.2828 25.105 50.235 25.105 50.2295 25.105H49.8785C49.8252 25.105 49.8011 25.0726 49.7969 25.0667C49.7922 25.0606 49.7683 25.0282 49.781 24.9737C49.8439 24.6999 49.9068 24.4261 49.97 24.1523C49.9718 24.1437 49.9824 24.0975 50.0287 24.0592C50.0747 24.021 50.1194 24.021 50.1277 24.021H50.479C50.4858 24.021 50.5323 24.021 50.5447 23.9662C50.638 23.5611 50.7313 23.1558 50.8243 22.7507C50.8264 22.7421 50.8371 22.6959 50.8831 22.6576C50.9291 22.6194 50.9737 22.6194 50.9823 22.6194H52.1742C52.2275 22.6194 52.2514 22.6518 52.2558 22.6576C52.2602 22.6638 52.2841 22.6959 52.2717 22.7507C52.1784 23.1558 52.0854 23.5611 51.9921 23.9662C51.9793 24.021 52.0274 24.021 52.0326 24.021H52.6287C52.6817 24.021 52.7059 24.0534 52.7103 24.0592C52.7147 24.0654 52.7386 24.0975 52.7261 24.1523C52.663 24.4261 52.6001 24.6999 52.5372 24.9737ZM56.1644 21.9731C56.2824 21.9731 56.7527 21.9755 57.1394 22.2689C57.3522 22.4304 57.5603 22.6956 57.6567 23.0956C57.7846 23.6269 57.6578 24.1785 57.6284 24.3055C57.4418 25.1173 57.0531 25.6346 56.721 25.9373C56.2525 26.3638 55.7118 26.5504 55.1859 26.5504H54.3879C54.3811 26.5504 54.3346 26.5504 54.3219 26.6052C54.0987 27.5761 53.8752 28.547 53.652 29.5178C53.6499 29.5264 53.6392 29.5726 53.5933 29.6109C53.5473 29.6494 53.5023 29.6494 53.494 29.6494H52.2488C52.1958 29.6494 52.1716 29.6167 52.1672 29.6109C52.1628 29.605 52.1389 29.5726 52.1514 29.5178C52.7199 27.0467 53.2885 24.5758 53.857 22.1047C53.8588 22.0961 53.8695 22.0499 53.9155 22.0116C53.9617 21.9731 54.0064 21.9731 54.0147 21.9731H56.1644ZM55.1331 25.3459C55.3166 25.3459 55.5385 25.2814 55.743 25.0777C56.0116 24.8098 56.0997 24.4282 56.1205 24.3384C56.1338 24.2806 56.2364 23.8665 56.0867 23.5828C55.9449 23.3141 55.6762 23.3092 55.6016 23.3092H55.1334C55.1266 23.3092 55.0804 23.3092 55.0676 23.3641C54.9198 24.0063 54.7722 24.6488 54.6243 25.2911C54.6116 25.3459 54.6594 25.3459 54.6649 25.3459H55.1331ZM57.1014 29.6494C57.0482 29.6494 57.024 29.6167 57.0198 29.6109C57.0154 29.605 56.9913 29.5726 57.004 29.5178C57.5715 27.0504 58.1393 24.583 58.707 22.1157C58.7089 22.1071 58.7195 22.0608 58.7655 22.0226C58.8117 21.9841 58.8564 21.9841 58.8648 21.9841H60.1099C60.1632 21.9841 60.1871 22.0167 60.1915 22.0226C60.196 22.0285 60.2199 22.0608 60.2074 22.1157C59.6396 24.583 59.0721 27.0504 58.5043 29.5178C58.5025 29.5264 58.4919 29.5726 58.4456 29.6109C58.3996 29.6494 58.3549 29.6494 58.3464 29.6494H57.1014ZM62.5348 23.9333C62.7308 23.9333 63.4451 23.9397 63.8873 24.4371C64.3106 24.9127 64.2028 25.517 64.1467 25.7619C63.8585 27.0138 63.5706 28.2659 63.2824 29.5178C63.2803 29.5264 63.2699 29.5726 63.2237 29.6109C63.1777 29.6494 63.133 29.6494 63.1244 29.6494H61.8795C61.8262 29.6494 61.8023 29.6167 61.7979 29.6109C61.7935 29.605 61.7693 29.5726 61.7821 29.5178L61.8374 29.2769C61.8449 29.244 61.8293 29.2349 61.8262 29.2331C61.8075 29.2221 61.7813 29.2518 61.7787 29.255C61.3289 29.7076 60.7419 29.732 60.5823 29.7368C60.4623 29.7368 59.9636 29.7355 59.5934 29.3865C59.214 29.0285 59.412 28.2095 59.4486 28.0504C59.5076 27.7932 59.7017 27.0207 60.3191 26.6488C60.9651 26.2598 61.8236 26.2657 61.9876 26.2657H62.4769C62.4839 26.2657 62.5302 26.2657 62.5429 26.2109L62.6058 25.9373C62.6146 25.8991 62.6738 25.6416 62.5637 25.4499C62.5031 25.3448 62.395 25.2582 62.2194 25.2582C62.1913 25.2582 62.0383 25.2582 61.8896 25.3731C61.8647 25.3924 61.7407 25.4881 61.661 25.6964C61.6199 25.8277 61.5092 25.8277 61.4923 25.8277C61.0675 25.824 60.6426 25.8205 60.2178 25.8167C60.1481 25.8167 60.0988 25.7796 60.1203 25.6852C60.2765 25.1592 60.5899 24.7189 61.0204 24.4095C61.4196 24.1229 61.9359 23.9333 62.5348 23.9333ZM61.3679 28.5432C61.4084 28.5432 61.6124 28.5432 61.8483 28.3734C62.0055 28.2606 62.1079 28.1018 62.1497 27.9191C62.1892 27.7475 62.2287 27.5761 62.2682 27.4044C62.2807 27.3496 62.2329 27.3496 62.2277 27.3496H61.7911C61.5866 27.3496 61.4165 27.4189 61.2894 27.5194C61.1699 27.6141 61.0573 27.7649 61.0067 27.9849C60.9991 28.0173 60.9438 28.2587 61.0441 28.401C61.1441 28.5432 61.3395 28.5432 61.3679 28.5432ZM65.9032 29.7368C65.6985 29.7368 64.9615 29.7309 64.5427 29.244C64.1321 28.767 64.2646 28.1159 64.315 27.8972C64.478 27.1892 64.6409 26.4812 64.8038 25.7729C64.9324 25.2143 65.2331 24.7574 65.6486 24.4371C66.2894 23.9429 67.031 23.9333 67.2383 23.9333C67.4428 23.9333 68.1797 23.9392 68.5989 24.4261C69.0144 24.9092 68.8829 25.5266 68.8413 25.7071L68.7961 25.9044C68.794 25.913 68.7834 25.959 68.7374 25.9975C68.6914 26.0357 68.6467 26.0357 68.6381 26.0357C68.219 26.0539 67.7996 26.0724 67.3804 26.0905C67.3108 26.0905 67.2614 26.0534 67.283 25.959L67.3131 25.8277C67.3204 25.7959 67.3688 25.5868 67.2627 25.4226C67.158 25.2601 66.9795 25.2582 66.9335 25.2582C66.7935 25.2582 66.6472 25.3095 66.5206 25.4336C66.4912 25.4625 66.3421 25.6087 66.2766 25.8935C66.1321 26.5213 65.9877 27.1491 65.8432 27.7769C65.8349 27.8127 65.7777 28.0614 65.8757 28.2368C65.9734 28.4111 66.1625 28.4119 66.208 28.4119C66.4315 28.4119 66.5882 28.2665 66.6142 28.2421C66.7968 28.0724 66.8413 27.8788 66.8498 27.8424L66.8826 27.7002C66.8844 27.6916 66.8951 27.6453 66.941 27.6071C66.9873 27.5689 67.032 27.5689 67.0403 27.5689C67.4545 27.5723 67.8687 27.5761 68.2829 27.5796C68.3362 27.5796 68.3603 27.6122 68.3645 27.6181C68.3692 27.624 68.3931 27.6563 68.3803 27.7111L68.3224 27.963C68.1984 28.5023 67.9038 28.9459 67.4878 29.255C66.8491 29.7298 66.103 29.7368 65.9032 29.7368ZM73.1197 27.1855C73.1179 27.194 73.1072 27.2403 73.061 27.2785C73.015 27.317 72.9703 27.317 72.9619 27.317H70.6207C70.614 27.317 70.5675 27.317 70.555 27.3715L70.4617 27.7769C70.4534 27.8122 70.3986 28.0504 70.5007 28.2312C70.5532 28.324 70.6519 28.4119 70.8263 28.4119C70.8572 28.4119 71.0284 28.4119 71.1877 28.275C71.2134 28.2531 71.347 28.1381 71.4374 27.9301C71.4946 27.8205 71.5853 27.8205 71.6009 27.8205C72.0036 27.8424 72.4067 27.8643 72.8097 27.8863C72.8627 27.8863 72.8869 27.9189 72.8913 27.9245C72.9196 27.963 72.897 28.021 72.8939 28.0288C72.8377 28.205 72.6182 28.8769 72.0312 29.3044C71.4372 29.7365 70.6943 29.7368 70.5215 29.7368C70.3196 29.7368 69.5707 29.7325 69.1544 29.2496C68.7462 28.7758 68.8839 28.113 68.9335 27.8972C69.0965 27.1892 69.2594 26.4812 69.4223 25.7729C69.5507 25.2143 69.8516 24.7574 70.2671 24.4371C70.9079 23.9429 71.6495 23.9333 71.8568 23.9333C72.0631 23.9333 72.7985 23.94 73.2148 24.4371C73.6199 24.9213 73.4959 25.5502 73.4447 25.7729C73.3364 26.2437 73.228 26.7146 73.1197 27.1855ZM71.5518 25.2582C71.4502 25.2582 71.2935 25.2916 71.1443 25.4336C71.115 25.4617 70.9604 25.6087 70.8975 25.8825L70.7992 26.3095C70.7868 26.3643 70.8346 26.3643 70.8398 26.3643H71.755C71.7617 26.3643 71.8082 26.3643 71.8207 26.3095L71.9192 25.8825C71.9272 25.8472 71.9821 25.6087 71.8787 25.4336C71.7773 25.2617 71.6014 25.2582 71.5518 25.2582Z" fill="white"/>
<path d="M47.3928 4.17847H49.065L50.2116 4.32596L51.3104 4.62091L52.0748 4.91586L52.8392 5.30915L53.4125 5.70243L54.0813 6.29237L54.5591 6.88227L54.9413 7.52138L55.3235 8.40623L55.5624 9.38946L55.6579 10.0777V11.7983L55.5146 12.8307L55.2757 13.8139L54.989 14.6496L54.6068 15.5345L54.1291 16.4194L53.6514 17.1568L53.1258 17.845L52.6481 18.3858L52.3614 18.7299L51.9792 19.074L51.2626 19.6148L50.546 20.0572L49.4472 20.598L48.1572 21.0404L46.8673 21.3354L45.5774 21.4829H44.2396L43.2842 21.3845L42.3286 21.1879L41.5165 20.9421L40.7521 20.598L40.0354 20.2047L39.271 19.6148L38.6977 19.074L38.2678 18.5333L37.8378 17.845L37.5989 17.3043L37.36 16.5669L37.2167 15.7803L37.1689 15.3378V13.8139L37.3122 12.8307L37.5989 11.7L37.9811 10.7168L38.5544 9.58608L39.0799 8.79951L39.6055 8.11128L40.6088 7.07893L41.4209 6.43983L42.1376 5.94825L43.1886 5.35831L44.3352 4.8667L45.3862 4.52258L46.5328 4.2768L47.3928 4.17847ZM46.9628 8.01295L46.1029 8.20961L45.5296 8.4554L45.004 8.75035L44.4308 9.1928L43.8574 9.73357L43.4752 10.2252L42.9975 11.0609L42.6631 11.9949L42.472 12.8307L42.3764 13.863L42.472 14.6987L42.7108 15.4853L43.0453 16.1244L43.4275 16.5669L43.9052 16.911L44.5263 17.2059L45.2429 17.4025H46.294L47.1062 17.2551L47.8228 17.0093L48.4439 16.6651L48.9216 16.2719L49.4472 15.7311L49.9249 15.0429L50.3549 14.2072L50.6893 13.2239L50.8804 12.1916V11.0609L50.7371 10.3235L50.546 9.8319L50.2593 9.34029L49.8294 8.84868L49.3516 8.50456L48.8738 8.25878L48.205 8.06212L47.9184 8.01295H46.9628Z" fill="#60A5FA"/>
</g>
<defs>
<clipPath id="clip0_86_2771">
<rect width="95" height="30" fill="white"/>
</clipPath>
</defs>
</svg>
