<?xml version="1.0" encoding="UTF-8"?>
<svg xmlns="http://www.w3.org/2000/svg" xmlns:xlink="http://www.w3.org/1999/xlink" viewBox="0 0 500 500">
  <defs>
    <style>
      .cls-1, .cls-2, .cls-3, .cls-4, .cls-5, .cls-6, .cls-7, .cls-8, .cls-9 {
        stroke: #263238;
      }

      .cls-1, .cls-2, .cls-3, .cls-4, .cls-5, .cls-7, .cls-8, .cls-9 {
        stroke-width: 1.11px;
      }

      .cls-1, .cls-4, .cls-6, .cls-7, .cls-8, .cls-9 {
        stroke-linecap: round;
      }

      .cls-1, .cls-4, .cls-6, .cls-7, .cls-9 {
        stroke-linejoin: round;
      }

      .cls-1, .cls-5, .cls-6, .cls-8 {
        fill: none;
      }

      .cls-10, .cls-11, .cls-12, .cls-13, .cls-14 {
        stroke-width: 0px;
      }

      .cls-10, .cls-9 {
        fill: #263238;
      }

      .cls-2, .cls-12, .cls-4 {
        fill: #c6ff00;
      }

      .cls-2, .cls-3, .cls-5, .cls-8 {
        stroke-miterlimit: 10;
      }

      .cls-11 {
        opacity: .3;
      }

      .cls-11, .cls-3, .cls-13, .cls-7, .cls-15, .cls-14 {
        fill: #fff;
      }

      .cls-16 {
        clip-path: url(#clippath-2);
      }

      .cls-13 {
        opacity: .7;
      }

      .cls-17 {
        clip-path: url(#clippath-1);
      }

      .cls-18 {
        clip-path: url(#clippath-4);
      }

      .cls-6 {
        stroke-width: 3.34px;
      }

      .cls-19 {
        clip-path: url(#clippath);
      }

      .cls-20 {
        clip-path: url(#clippath-3);
      }

      .cls-21 {
        clip-path: url(#clippath-5);
      }

      .cls-14 {
        opacity: .5;
      }
    </style>
    <clipPath id="clippath">
      <circle class="cls-7" cx="294.77" cy="382.08" r="35.81" transform="translate(-78.81 76.61) rotate(-13.08)"/>
    </clipPath>
    <clipPath id="clippath-1">
      <path class="cls-7" d="M231.15,342.28c-22.27,0-35.64-19.75-40.39-37.12l-.16-.61c-.91-3.49,1.19-7.06,4.68-7.97,3.49-.9,7.06,1.19,7.97,4.68l.12.45c3.62,13.22,13.45,28.33,29.21,27.46,6.29-.35,11.35-2.83,15.48-7.56,8.65-9.91,12.52-31.49,11.66-42.37-.23-2.88,1.92-5.4,4.8-5.63,2.9-.23,5.4,1.92,5.63,4.8.96,12.1-.32,38.14-12.23,51.79-6.47,7.41-14.75,11.46-24.59,12.01-.73.04-1.45.06-2.16.06Z"/>
    </clipPath>
    <clipPath id="clippath-2">
      <path class="cls-7" d="M216.21,216.68s-9.71,28.12-4.48,50.02c5.23,21.9,24.39,29.11,24.39,29.11,0,0-14.18,4.98-10.95,12.69,3.23,7.71,15.43,2.74,19.41.25,3.98-2.49,8.96-9.95,9.7-14.93.75-4.98.5-7.71.5-7.71,0,0,16.17-1.74,27.12-10.7,0,0,9.7,7.71,16.67,6.22,6.97-1.49,16.92-13.94,15.93-25.13-1-11.2-7.47-11.2-11.45-9.46-3.98,1.74-5.47,3.48-5.47,3.48,0,0,5.72-6.97,0-16.67s-15.93-10.45-15.93-10.45c0,0-2.99-15.93-11.94-21.9-8.96-5.97-40.81-12.19-53.5,15.18Z"/>
    </clipPath>
    <clipPath id="clippath-3">
      <path class="cls-7" d="M196.05,202.5s-10.45,14.68-11.94,29.61c-1.49,14.93.25,24.88,4.73,28.62,4.48,3.73,8.96,2.24,11.45-1.24,2.49-3.48-1.49-15.68-1.49-15.68,0,0,4.23-11.7,10.7-19.91,6.47-8.21,7.71-9.46,7.71-9.46,0,0-11.2-12.69-21.15-11.94Z"/>
    </clipPath>
    <clipPath id="clippath-4">
      <path class="cls-7" d="M277.9,195.25s11.84,13.59,14.79,28.3c2.95,14.71,2.19,24.79-1.9,28.94-4.09,4.15-8.7,3.11-11.51-.12-2.82-3.22-.05-15.75-.05-15.75,0,0-5.36-11.22-12.6-18.76-7.24-7.54-8.6-8.65-8.6-8.65,0,0,9.9-13.73,19.88-13.96Z"/>
    </clipPath>
    <clipPath id="clippath-5">
      <path class="cls-3" d="M195.07,189.8s-3.08,10.39-1.92,14.63c1.15,4.23,6.54.38,11.93,5,5.39,4.62,10.38,12.93,30.79,14.47,20.4,1.54,32.73-9.46,36.96-15.62,4.23-6.16,3.85-13.47,11.16-13.86,7.31-.38,1.15-14.63-1.15-16.94,0,0,14.24-21.17,14.24-26.56s-13.47-4.23-30.03.77c0,0-12.32-6.54-34.65-2.69-22.33,3.85-28.87,10.39-28.87,10.39,0,0-27.72,3.46-29.64,6.93-1.92,3.46,3.85,18.09,21.17,23.48Z"/>
    </clipPath>
  </defs>
  <g id="Background_Simple" data-name="Background Simple">
    <g>
      <path class="cls-12" d="M41.06,263.18s2.34,72.68,63.01,121.12c60.67,48.44,144.74,51.91,212.79,56.51,68.06,4.6,120.33-33.93,128.21-92.16,7.88-58.24-44.13-75.34-72.34-141.63-28.22-66.29-25.7-88.09-85.41-128.86-59.7-40.77-153.09-15.74-202.06,54.11-48.97,69.85-44.21,130.91-44.21,130.91Z"/>
      <path class="cls-13" d="M41.06,263.18s2.34,72.68,63.01,121.12c60.67,48.44,144.74,51.91,212.79,56.51,68.06,4.6,120.33-33.93,128.21-92.16,7.88-58.24-44.13-75.34-72.34-141.63-28.22-66.29-25.7-88.09-85.41-128.86-59.7-40.77-153.09-15.74-202.06,54.11-48.97,69.85-44.21,130.91-44.21,130.91Z"/>
    </g>
  </g>
  <g id="Floor">
    <g>
      <line class="cls-5" x1="68.67" y1="380.53" x2="59.49" y2="380.53"/>
      <line class="cls-5" x1="440.51" y1="380.53" x2="83.19" y2="380.53"/>
    </g>
  </g>
  <g id="Yarn_Ball" data-name="Yarn Ball">
    <g>
      <ellipse class="cls-10" cx="306.07" cy="410.55" rx="30.39" ry="8.36"/>
      <path class="cls-3" d="M149.03,429.54c-31.62,0-36.29-4.57-36.75-8.26-.2-1.6.28-3.02,1.44-4.23,8.52-8.94,57.61-5.16,125.56.08,9.48.73,19.28,1.48,29.33,2.23,68.65,5.1,96.29,4.44,101.97-2.46,1.16-1.41,1.41-3.18.76-5.55-2.72-9.96-39.07-10.03-52.85-9.23-.65.03-1.22-.46-1.26-1.12-.04-.65.46-1.22,1.12-1.26,5.27-.31,51.57-2.63,55.28,10.97.86,3.14.46,5.65-1.22,7.69-6.41,7.78-32.65,8.61-103.98,3.32-10.05-.75-19.86-1.5-29.34-2.23-64.76-4.99-115.91-8.93-123.66-.8-.66.69-.91,1.42-.8,2.3.29,2.35,5.95,7.63,52.01,5.79,25.73-1.03,51.58-3.83,51.84-3.86.65-.07,1.24.4,1.31,1.05.07.65-.4,1.24-1.05,1.31-.26.03-26.18,2.84-51.99,3.87-6.69.27-12.56.39-17.72.39Z"/>
      <g>
        <circle class="cls-15" cx="294.77" cy="382.08" r="35.81" transform="translate(-78.81 76.61) rotate(-13.08)"/>
        <g class="cls-19">
          <path class="cls-12" d="M294.77,417.89c19.77,0,35.81-16.03,35.81-35.81,0-7.48-2.3-14.42-6.22-20.17-.4,15.59-9.02,38.62-53.79,46.55,6.37,5.85,14.87,9.42,24.2,9.42Z"/>
          <path class="cls-11" d="M294.77,417.89c19.77,0,35.81-16.03,35.81-35.81,0-7.48-2.3-14.42-6.22-20.17-.4,15.59-9.02,38.62-53.79,46.55,6.37,5.85,14.87,9.42,24.2,9.42Z"/>
          <g>
            <path class="cls-1" d="M312.39,396.12c-10.52-10.29-22.64-13.51-22.64-13.51,0,0,12.12,3.21,22.64,13.51.63,0,1.25.03,1.9.03,4.97-5,8.41-9.84,10.79-14.06-16.77-17.74-33.13-15.93-33.13-15.93,0,0,16.36-1.81,33.13,15.93.92-1.65,1.69-3.2,2.32-4.63-6.94-9.78-18.95-16.41-25.44-17.43l-1.5-.35c-4.34-.68-7.05-.1-7.05-.1,0,0,2.7-.58,7.05.1l4.27-11.97c-1.99-.57-4.06-.97-6.18-1.18-2.76,4.47-9.9,18.75-9.9,47.07,0-28.33,7.14-42.61,9.9-47.07-1.19-.12-2.4-.18-3.62-.18-1.37,0-2.72.08-4.05.23-4.22,6.38-12.29,21.46-12.83,44.08,8.41,2.99,19.61,5.26,34.35,5.48ZM320.48,388.83c-14.27-13.9-30-14.63-30-14.63,0,0,15.73.73,30,14.63Z"/>
            <path class="cls-1" d="M278.05,390.64c.54-22.62,8.61-37.69,12.83-44.08-3.37.38-6.59,1.22-9.61,2.47-4.57,6.65-11.76,19.86-12.35,37.6,2.59,1.4,5.62,2.76,9.13,4.01Z"/>
            <path class="cls-1" d="M281.27,349.03c-12.32,5.08-21.18,16.81-22.12,30.72,2.19,2.04,5.35,4.49,9.77,6.88.59-17.73,7.78-30.94,12.35-37.6Z"/>
            <path class="cls-1" d="M327.4,377.45c.9-2.03,1.53-3.82,1.97-5.3-1.51-5.17-4.14-9.85-7.63-13.77l-2.72,9.24,2.72-9.24c-2.2-2.47-4.74-4.64-7.54-6.43l-3.06,11.41,3.06-11.41c-2.9-1.85-6.08-3.29-9.46-4.25l-4.27,11.97c6.49,1.02,16.65,4.88,26.94,17.79Z"/>
            <path class="cls-1" d="M330.77,383.77c.02-.52.04-1.04.04-1.56,0-3.5-.51-6.87-1.44-10.06-.44,1.48-1.07,3.27-1.97,5.3.01.01.02.03.03.04-.01-.01-.02-.03-.03-.04-.63,1.43-.6,1.41-1.52,3.06.05.06-.86,1.51-.8,1.57-.05-.06-.95,1.8-1.01,1.74-2.38,4.23-9.55,12.33-9.44,12.33-.12,0-3.88,3.41-5.94,5.13.03,0,.05,0,.08,0-.03,0-.05,0-.08,0-3.4,2.84-7.34,5.68-11.89,8.45.09-.02.18-.03.26-.04-.08.02-.17.03-.26.04-3.78,2.3-8.01,4.55-12.69,6.7,3.41,1.08,7.04,1.66,10.81,1.66.6,0,1.21-.02,1.8-.05,7.24-3.94,18.91-13.09,34.03-34.27Z"/>
            <path class="cls-1" d="M330.77,383.77c-15.12,21.19-26.79,30.33-34.03,34.27,18.46-.91,33.24-15.78,34.03-34.27Z"/>
            <path class="cls-1" d="M266.89,404.57c4.39,5.5,10.36,9.68,17.23,11.85,4.68-2.15,8.91-4.39,12.69-6.7-8.54,1.58-21.9-2.34-29.92-5.15Z"/>
            <path class="cls-1" d="M296.81,409.73c4.55-2.77,8.48-5.61,11.89-8.45-25.78,2.64-41.69-5.34-48.45-9.89,1.29,4.88,3.58,9.35,6.64,13.19,8.03,2.82,21.38,6.73,29.92,5.15Z"/>
            <path class="cls-1" d="M308.7,401.28c2.06-1.72,3.91-3.43,5.6-5.13-.64,0-1.26-.02-1.9-.03.14.13.27.26.41.4-.14-.14-.27-.26-.41-.4-14.73-.21-25.94-2.48-34.35-5.48,0,0,0,.01,0,.02,0,0,0-.01,0-.02-12.29-4.26-16.71-8.85-18.9-10.89-.05.81-.09,1.63-.09,2.46,0,3.17.42,6.25,1.19,9.18,6.76,4.54,22.67,12.53,48.45,9.89Z"/>
          </g>
        </g>
        <circle class="cls-1" cx="294.77" cy="382.08" r="35.81" transform="translate(-78.81 76.61) rotate(-13.08)"/>
      </g>
    </g>
  </g>
  <g id="Plants">
    <g>
      <path class="cls-12" d="M360.73,320.88s-2.45-7.96-9.59-10.81c-4.96-1.99-10.68-1.47-15.82-.57-9.58,1.67-17.94,5.48-27.03,8.73,0,0,3.88-1.43,19.79,6.32,5.86,2.86,12.56,5.07,19.27,4.92,5.38-.12,13.63-1.65,13.38-8.59Z"/>
      <path class="cls-12" d="M361.59,297.51s-.05-8.32-6.06-13.12c-4.18-3.33-9.8-4.49-14.98-5.12-9.65-1.17-18.76.06-28.4.55,0,0,4.12-.25,17.12,11.77,4.79,4.43,10.56,8.48,17.02,10.28,5.19,1.44,13.53,2.35,15.29-4.36Z"/>
      <path class="cls-12" d="M378.04,328.42s-6.49-5.21-6.52-12.9c-.02-5.34,2.57-10.46,5.3-14.91,5.08-8.29,11.71-14.66,18.08-21.9,0,0-2.76,3.08-1.42,20.73.49,6.5.08,13.55-2.53,19.72-2.1,4.96-6.56,12.06-12.92,9.27Z"/>
      <path class="cls-12" d="M401.04,341.2s-.92-8.27,4.5-13.73c3.76-3.79,9.21-5.59,14.29-6.81,9.45-2.28,18.64-2.11,28.27-2.73,0,0-4.12.23-15.64,13.67-4.24,4.95-9.51,9.65-15.72,12.18-4.99,2.03-13.17,3.9-15.69-2.57Z"/>
      <path class="cls-12" d="M399.53,311.71s-8.25-1.13-12.22-7.72c-2.76-4.58-3.17-10.3-3.11-15.52.1-9.72,2.51-18.59,4.26-28.08,0,0-.78,4.06,9.43,18.51,3.76,5.32,7.03,11.58,7.96,18.22.75,5.33.56,13.72-6.33,14.59Z"/>
      <path class="cls-12" d="M423.27,296.9s5.93,5.84,13.57,4.97c5.31-.61,10.09-3.78,14.19-7.01,7.64-6.02,13.19-13.34,19.64-20.51,0,0-2.73,3.1-20.42,3.83-6.51.27-13.46,1.5-19.29,4.81-4.68,2.66-11.21,7.93-7.69,13.91Z"/>
      <path class="cls-12" d="M416.4,291.13s8.28.83,13.69-4.64c3.76-3.8,5.5-9.27,6.67-14.36,2.18-9.48,1.92-18.66,2.44-28.3,0,0-.19,4.13-13.51,15.78-4.91,4.29-9.55,9.61-12.01,15.84-1.98,5.01-3.77,13.21,2.73,15.66Z"/>
      <polyline class="cls-1" points="386.83 371.74 372.53 336.55 356.04 295.86"/>
      <polyline class="cls-1" points="390.13 365.69 404.42 316.76 419.82 286.52"/>
      <line class="cls-1" x1="395.62" y1="346.45" x2="409.92" y2="338.2"/>
      <line class="cls-1" x1="404.42" y1="316.76" x2="397.27" y2="300.81"/>
      <line class="cls-1" x1="413.37" y1="300.89" x2="430.81" y2="293.11"/>
      <line class="cls-1" x1="375.28" y1="343.15" x2="381.33" y2="318.96"/>
      <line class="cls-1" x1="367.26" y1="324.76" x2="353.29" y2="317.31"/>
      <path class="cls-9" d="M394.16,389.33h-11.92c-4.02,0-7.47-2.86-8.22-6.81l-4.23-22.33h36.84l-4.23,22.33c-.75,3.95-4.2,6.81-8.22,6.81Z"/>
    </g>
  </g>
  <g id="Text">
    <g>
      <g>
        <path class="cls-10" d="M58.66,253.2c0-2.77,1.28-4.81,4.16-4.81s4.21,2.04,4.21,4.81v9.72c0,2.77-1.28,4.81-4.21,4.81s-4.16-2.04-4.16-4.81v-9.72ZM59.91,263c0,2.06.81,3.58,2.91,3.58s2.96-1.52,2.96-3.58v-9.89c0-2.06-.84-3.59-2.96-3.59s-2.91,1.52-2.91,3.59v9.89Z"/>
        <path class="cls-10" d="M69.01,253.2c0-2.77,1.28-4.81,4.16-4.81s4.21,2.04,4.21,4.81v9.72c0,2.77-1.28,4.81-4.21,4.81s-4.16-2.04-4.16-4.81v-9.72ZM70.26,263c0,2.06.81,3.58,2.91,3.58s2.96-1.52,2.96-3.58v-9.89c0-2.06-.84-3.59-2.96-3.59s-2.91,1.52-2.91,3.59v9.89Z"/>
        <path class="cls-10" d="M83.38,248.55c2.93,0,4.07,1.85,4.07,4.62v2.06c0,3.01-1.39,4.51-4.4,4.51h-2.36v7.82h-1.25v-19.01h3.94ZM83.06,258.6c2.2,0,3.15-.98,3.15-3.29v-2.23c0-2.06-.71-3.4-2.82-3.4h-2.69v8.91h2.36Z"/>
        <path class="cls-10" d="M97.35,253.14v.41h-1.2v-.49c0-2.01-.76-3.53-2.82-3.53s-2.82,1.49-2.82,3.5c0,4.62,6.87,4.7,6.87,9.94,0,2.74-1.2,4.75-4.1,4.75s-4.1-2.01-4.1-4.75v-.98h1.2v1.06c0,2.04.79,3.5,2.88,3.5s2.88-1.47,2.88-3.5c0-4.56-6.87-4.64-6.87-9.94,0-2.85,1.25-4.7,4.05-4.73,2.88,0,4.05,2.01,4.05,4.75Z"/>
        <path class="cls-10" d="M100.47,265.18v2.39h-1.22v-2.39h1.22Z"/>
        <path class="cls-10" d="M103.87,265.18v2.39h-1.22v-2.39h1.22Z"/>
        <path class="cls-10" d="M107.26,265.18v2.39h-1.22v-2.39h1.22Z"/>
      </g>
      <g>
        <path class="cls-10" d="M62.68,276.22c2.93,0,4.07,1.85,4.07,4.62v2.06c0,3.01-1.39,4.51-4.4,4.51h-2.36v7.82h-1.25v-19.01h3.94ZM62.36,286.27c2.2,0,3.15-.98,3.15-3.29v-2.23c0-2.06-.71-3.4-2.82-3.4h-2.69v8.91h2.36Z"/>
        <path class="cls-10" d="M70.1,291.02l-.95,4.21h-1.14l4.16-19.04h1.82l4.24,19.04h-1.25l-.95-4.21h-5.92ZM70.29,289.93h5.54l-2.8-12.3-2.74,12.3Z"/>
        <path class="cls-10" d="M88.22,280.86v1.41h-1.2v-1.49c0-2.04-.79-3.59-2.88-3.59s-2.88,1.55-2.88,3.59v9.89c0,2.04.79,3.56,2.88,3.56s2.88-1.52,2.88-3.56v-4.1h-2.53v-1.14h3.72v5.16c0,2.74-1.2,4.81-4.1,4.81s-4.1-2.06-4.1-4.81v-9.72c0-2.74,1.2-4.81,4.1-4.81s4.1,2.06,4.1,4.81Z"/>
        <path class="cls-10" d="M96.75,285.02v1.14h-5.19v7.93h6.25v1.14h-7.5v-19.01h7.5v1.14h-6.25v7.66h5.19Z"/>
        <path class="cls-10" d="M105.2,295.23h-1.14v-19.01h1.63l5.7,16.05v-16.05h1.14v19.01h-1.39l-5.95-16.95v16.95Z"/>
        <path class="cls-10" d="M114.6,280.86c0-2.77,1.28-4.81,4.16-4.81s4.21,2.04,4.21,4.81v9.72c0,2.77-1.28,4.81-4.21,4.81s-4.16-2.04-4.16-4.81v-9.72ZM115.85,290.67c0,2.06.81,3.59,2.91,3.59s2.96-1.52,2.96-3.59v-9.89c0-2.06-.84-3.59-2.96-3.59s-2.91,1.52-2.91,3.59v9.89Z"/>
        <path class="cls-10" d="M128.23,295.23v-17.87h-3.86v-1.14h8.99v1.14h-3.88v17.87h-1.25Z"/>
        <path class="cls-10" d="M145.29,285.48v1.14h-4.92v8.61h-1.25v-19.01h7.22v1.14h-5.97v8.12h4.92Z"/>
        <path class="cls-10" d="M148.17,280.86c0-2.77,1.28-4.81,4.16-4.81s4.21,2.04,4.21,4.81v9.72c0,2.77-1.28,4.81-4.21,4.81s-4.16-2.04-4.16-4.81v-9.72ZM149.42,290.67c0,2.06.81,3.59,2.91,3.59s2.96-1.52,2.96-3.59v-9.89c0-2.06-.84-3.59-2.96-3.59s-2.91,1.52-2.91,3.59v9.89Z"/>
        <path class="cls-10" d="M159.8,290.64c0,2.04.76,3.61,2.85,3.61s2.85-1.58,2.85-3.61v-14.42h1.17v14.37c0,2.72-1.14,4.81-4.05,4.81s-4.07-2.09-4.07-4.81v-14.37h1.25v14.42Z"/>
        <path class="cls-10" d="M169.96,295.23h-1.14v-19.01h1.63l5.7,16.05v-16.05h1.14v19.01h-1.39l-5.95-16.95v16.95Z"/>
        <path class="cls-10" d="M183.62,276.22c2.93,0,4.21,1.93,4.21,4.73v9.56c0,2.8-1.28,4.73-4.21,4.73h-4.18v-19.01h4.18ZM183.6,294.09c2.12,0,2.99-1.44,2.99-3.53v-9.67c0-2.09-.9-3.53-2.99-3.53h-2.91v16.73h2.91Z"/>
      </g>
    </g>
  </g>
  <g id="Character">
    <g>
      <g>
        <g>
          <g>
            <path class="cls-15" d="M231.15,342.28c-22.27,0-35.64-19.75-40.39-37.12l-.16-.61c-.91-3.49,1.19-7.06,4.68-7.97,3.49-.9,7.06,1.19,7.97,4.68l.12.45c3.62,13.22,13.45,28.33,29.21,27.46,6.29-.35,11.35-2.83,15.48-7.56,8.65-9.91,12.52-31.49,11.66-42.37-.23-2.88,1.92-5.4,4.8-5.63,2.9-.23,5.4,1.92,5.63,4.8.96,12.1-.32,38.14-12.23,51.79-6.47,7.41-14.75,11.46-24.59,12.01-.73.04-1.45.06-2.16.06Z"/>
            <g class="cls-17">
              <path class="cls-12" d="M264.51,273.62c-2.88.23-5.03,2.75-4.8,5.63.42,5.31-.29,13.16-2.13,20.97,2.26-.11,4.85.14,7.77,1.01-.42,5.34-2.1,13.19-7.63,20.87-9.71,13.49-24.28,17.8-35.61,16.19-5.06-.72-10.88-3.39-15.77-6.11,6.46,6.05,14.72,10.11,24.81,10.11.71,0,1.43-.02,2.16-.06,9.85-.55,18.12-4.6,24.59-12.01,11.91-13.65,13.19-39.69,12.23-51.79-.23-2.88-2.73-5.03-5.63-4.8Z"/>
              <path class="cls-14" d="M264.51,273.62c-2.88.23-5.03,2.75-4.8,5.63.42,5.31-.29,13.16-2.13,20.97,2.26-.11,4.85.14,7.77,1.01-.42,5.34-2.1,13.19-7.63,20.87-9.71,13.49-24.28,17.8-35.61,16.19-5.06-.72-10.88-3.39-15.77-6.11,6.46,6.05,14.72,10.11,24.81,10.11.71,0,1.43-.02,2.16-.06,9.85-.55,18.12-4.6,24.59-12.01,11.91-13.65,13.19-39.69,12.23-51.79-.23-2.88-2.73-5.03-5.63-4.8Z"/>
            </g>
            <path class="cls-1" d="M231.15,342.28c-22.27,0-35.64-19.75-40.39-37.12l-.16-.61c-.91-3.49,1.19-7.06,4.68-7.97,3.49-.9,7.06,1.19,7.97,4.68l.12.45c3.62,13.22,13.45,28.33,29.21,27.46,6.29-.35,11.35-2.83,15.48-7.56,8.65-9.91,12.52-31.49,11.66-42.37-.23-2.88,1.92-5.4,4.8-5.63,2.9-.23,5.4,1.92,5.63,4.8.96,12.1-.32,38.14-12.23,51.79-6.47,7.41-14.75,11.46-24.59,12.01-.73.04-1.45.06-2.16.06Z"/>
          </g>
          <g>
            <path class="cls-4" d="M218.31,328.75c.52-2.45-5.34,1.39-10.24,4.95,1.82,1.53,3.77,2.89,5.84,4.07,1.75-2.84,3.89-6.65,4.4-9.02Z"/>
            <path class="cls-4" d="M231.15,342.28c.71,0,1.43-.02,2.16-.06,2.18-.12,4.28-.43,6.31-.89-2.76-3.6-6.55-8.35-7.65-8.72-1.25-.42-3.66,5.71-4.99,9.43,1.35.16,2.74.24,4.17.24Z"/>
            <path class="cls-4" d="M203.37,301.71l-.12-.45c-.91-3.49-4.47-5.58-7.97-4.68-3.49.91-5.59,4.48-4.68,7.97l.16.61c1.58,5.77,4.11,11.79,7.6,17.28l11.91-5.67c-3.2-4.62-5.51-9.97-6.9-15.05Z"/>
            <path class="cls-4" d="M257.91,330.21c.91-1.04,1.75-2.17,2.54-3.34-3.78-1.29-9.44-3.07-11.54-2.88-2.49.23.89,8.23,2.64,12.01,2.28-1.62,4.41-3.55,6.36-5.79Z"/>
            <path class="cls-4" d="M258.12,308.84c-.4.79,4.49,4.36,7.79,6.65,1.05-3.09,1.88-6.3,2.52-9.52-4,.8-9.92,2.09-10.32,2.87Z"/>
            <path class="cls-4" d="M270.05,294.05c.22-2.85.33-5.57.34-8.08-3.44,1.9-7.52,4.51-7.52,6.23s3.82,1.93,7.18,1.84Z"/>
          </g>
        </g>
        <g>
          <g>
            <path class="cls-15" d="M216.21,216.68s-9.71,28.12-4.48,50.02c5.23,21.9,24.39,29.11,24.39,29.11,0,0-14.18,4.98-10.95,12.69,3.23,7.71,15.43,2.74,19.41.25,3.98-2.49,8.96-9.95,9.7-14.93.75-4.98.5-7.71.5-7.71,0,0,16.17-1.74,27.12-10.7,0,0,9.7,7.71,16.67,6.22,6.97-1.49,16.92-13.94,15.93-25.13-1-11.2-7.47-11.2-11.45-9.46-3.98,1.74-5.47,3.48-5.47,3.48,0,0,5.72-6.97,0-16.67s-15.93-10.45-15.93-10.45c0,0-2.99-15.93-11.94-21.9-8.96-5.97-40.81-12.19-53.5,15.18Z"/>
            <g class="cls-16">
              <path class="cls-12" d="M290.14,226.35c-7.05,11.74-21.35,25.25-43.86,27.22-19.8,1.74-30.9-2.16-36.02-4.87.69-16.78,5.94-32.02,5.94-32.02,12.69-27.37,44.54-21.15,53.5-15.18,8.96,5.97,11.94,21.9,11.94,21.9,0,0,4.06.3,8.49,2.95ZM303.06,247.04c-3.98,1.74-5.47,3.48-5.47,3.48,0,0,1.73-2.12,2.33-5.64-13.45,6.69-12.4,21.02-14.08,21.02-2.05,0-3.08-7.19-3.08-7.19,0,0-2.57,10.27-17.98,17.47s-32.88,1.54-32.88,1.54c0,0,3.6,8.22-5.65,7.19-3.12-.35-5.47-1.4-7.23-2.64,7.47,9.91,17.09,13.55,17.09,13.55,0,0-14.18,4.98-10.95,12.69,3.23,7.71,15.43,2.74,19.41.25,3.98-2.49,8.96-9.95,9.7-14.93.75-4.98.5-7.71.5-7.71,0,0,16.18-1.74,27.12-10.7,0,0,9.7,7.71,16.67,6.22,6.97-1.49,16.92-13.94,15.93-25.13-1-11.2-7.47-11.2-11.45-9.46Z"/>
              <path class="cls-14" d="M290.14,226.35c-7.05,11.74-21.35,25.25-43.86,27.22-19.8,1.74-30.9-2.16-36.02-4.87.69-16.78,5.94-32.02,5.94-32.02,12.69-27.37,44.54-21.15,53.5-15.18,8.96,5.97,11.94,21.9,11.94,21.9,0,0,4.06.3,8.49,2.95ZM303.06,247.04c-3.98,1.74-5.47,3.48-5.47,3.48,0,0,1.73-2.12,2.33-5.64-13.45,6.69-12.4,21.02-14.08,21.02-2.05,0-3.08-7.19-3.08-7.19,0,0-2.57,10.27-17.98,17.47s-32.88,1.54-32.88,1.54c0,0,3.6,8.22-5.65,7.19-3.12-.35-5.47-1.4-7.23-2.64,7.47,9.91,17.09,13.55,17.09,13.55,0,0-14.18,4.98-10.95,12.69,3.23,7.71,15.43,2.74,19.41.25,3.98-2.49,8.96-9.95,9.7-14.93.75-4.98.5-7.71.5-7.71,0,0,16.18-1.74,27.12-10.7,0,0,9.7,7.71,16.67,6.22,6.97-1.49,16.92-13.94,15.93-25.13-1-11.2-7.47-11.2-11.45-9.46Z"/>
              <path class="cls-1" d="M254.78,286.11s-16.57,1.35-28.15-12.91"/>
            </g>
            <path class="cls-1" d="M216.21,216.68s-9.71,28.12-4.48,50.02c5.23,21.9,24.39,29.11,24.39,29.11,0,0-14.18,4.98-10.95,12.69,3.23,7.71,15.43,2.74,19.41.25,3.98-2.49,8.96-9.95,9.7-14.93.75-4.98.5-7.71.5-7.71,0,0,16.17-1.74,27.12-10.7,0,0,9.7,7.71,16.67,6.22,6.97-1.49,16.92-13.94,15.93-25.13-1-11.2-7.47-11.2-11.45-9.46-3.98,1.74-5.47,3.48-5.47,3.48,0,0,5.72-6.97,0-16.67s-15.93-10.45-15.93-10.45c0,0-2.99-15.93-11.94-21.9-8.96-5.97-40.81-12.19-53.5,15.18Z"/>
          </g>
          <path class="cls-1" d="M297.58,250.52s-5.23,3.48-7.71,14.18"/>
          <g>
            <g>
              <path class="cls-7" d="M307.17,255.1c-.61,1.82-2.28,2.91-3.72,2.42-1.44-.49-2.11-2.36-1.49-4.18.61-1.82,2.28-2.91,3.72-2.42,1.44.49,2.11,2.36,1.49,4.18Z"/>
              <path class="cls-7" d="M312.32,258.34c-.61,1.82-2.28,2.91-3.72,2.42-1.44-.49-2.11-2.36-1.49-4.18.61-1.82,2.28-2.91,3.72-2.42s2.11,2.36,1.49,4.18Z"/>
              <path class="cls-7" d="M313.42,263.19c-.45,1.32-1.66,2.11-2.7,1.76-1.05-.35-1.53-1.71-1.08-3.04.45-1.32,1.66-2.11,2.7-1.76,1.05.35,1.53,1.71,1.08,3.04Z"/>
            </g>
            <path class="cls-7" d="M306.85,269.85c-1.8,3.25-5.4,4.69-8.04,3.22-2.64-1.47-3.33-5.28-1.53-8.53,1.8-3.25,5.4-4.69,8.04-3.22,2.64,1.47,3.33,5.28,1.53,8.53Z"/>
          </g>
          <g>
            <path class="cls-1" d="M236.12,295.81s4.48,2.49,10.7.75"/>
            <path class="cls-1" d="M225.17,308.5s1-4.23,7.22-7.22"/>
            <path class="cls-1" d="M231.39,312.24s2.49-5.97,6.72-8.71"/>
          </g>
        </g>
      </g>
      <g>
        <path class="cls-10" d="M133.26,243.4c-2.15-1.72-3.22-4.08-3.22-7.08v-23.71h-61.16c-3.29,0-5.96-1.11-7.99-3.33-2.04-2.22-3.06-4.83-3.06-7.83,0-2.36.68-4.58,2.04-6.65l58.58-92.06c4.36-6.8,10.19-10.19,17.49-10.19,4.29,0,7.87,1.25,10.73,3.76,2.86,2.5,4.29,6.22,4.29,11.16v89.48h15.56c2.5,0,4.43.77,5.79,2.31,1.36,1.54,2.04,3.38,2.04,5.53s-.68,3.99-2.04,5.53c-1.36,1.54-3.29,2.31-5.79,2.31h-15.66v23.71c0,3-1.04,5.36-3.11,7.08-2.08,1.72-4.47,2.57-7.19,2.57s-5.15-.86-7.3-2.57ZM130.04,196.94v-82.4l-51.29,82.4h51.29Z"/>
        <path class="cls-10" d="M218.13,243.88c-6.37-2.9-11.53-6.76-15.5-11.59-3.97-4.83-7.23-10.71-9.76-17.65-2.54-6.94-4.31-14.06-5.31-21.35-1-7.3-1.5-15.27-1.5-23.93,0-52.72,17.99-79.08,53.97-79.08s53.86,26.36,53.86,79.08c0,8.58-.48,16.52-1.45,23.82-.97,7.3-2.72,14.41-5.26,21.35-2.54,6.94-5.79,12.82-9.76,17.65-3.97,4.83-9.14,8.71-15.5,11.64-6.37,2.93-13.66,4.4-21.89,4.4s-15.52-1.45-21.89-4.35ZM250.69,228.75c3.18-1.39,5.86-3.22,8.05-5.47,2.18-2.25,4.08-5.06,5.69-8.42,1.61-3.36,2.88-6.76,3.81-10.19.93-3.43,1.66-7.31,2.2-11.64.54-4.33.89-8.3,1.07-11.91.18-3.61.27-7.53.27-11.75,0-4.43-.09-8.53-.27-12.29-.18-3.76-.55-7.8-1.13-12.12-.57-4.33-1.33-8.21-2.25-11.64-.93-3.43-2.2-6.79-3.81-10.09-1.61-3.29-3.51-6.04-5.69-8.26-2.18-2.22-4.85-3.99-7.99-5.31-3.15-1.32-6.69-1.98-10.62-1.98s-7.48.66-10.62,1.98c-3.15,1.32-5.79,3.08-7.94,5.26-2.15,2.18-4.04,4.92-5.69,8.21-1.65,3.29-2.92,6.65-3.81,10.09-.89,3.43-1.63,7.33-2.2,11.7-.57,4.36-.95,8.42-1.13,12.18-.18,3.76-.27,7.85-.27,12.29s.09,8.15.27,11.8c.18,3.65.54,7.64,1.07,11.96.54,4.33,1.27,8.21,2.2,11.64.93,3.43,2.2,6.83,3.81,10.19,1.61,3.36,3.49,6.15,5.63,8.37,2.15,2.22,4.81,4.02,7.99,5.42,3.18,1.4,6.74,2.09,10.68,2.09s7.49-.7,10.68-2.09Z"/>
        <path class="cls-10" d="M386.58,243.4c-2.15-1.72-3.22-4.08-3.22-7.08v-23.71h-61.16c-3.29,0-5.95-1.11-7.99-3.33-2.04-2.22-3.06-4.83-3.06-7.83,0-2.36.68-4.58,2.04-6.65l58.58-92.06c4.36-6.8,10.19-10.19,17.49-10.19,4.29,0,7.87,1.25,10.73,3.76,2.86,2.5,4.29,6.22,4.29,11.16v89.48h15.56c2.5,0,4.43.77,5.79,2.31,1.36,1.54,2.04,3.38,2.04,5.53s-.68,3.99-2.04,5.53c-1.36,1.54-3.29,2.31-5.79,2.31h-15.66v23.71c0,3-1.04,5.36-3.11,7.08-2.08,1.72-4.47,2.57-7.19,2.57s-5.15-.86-7.3-2.57ZM383.36,196.94v-82.4l-51.29,82.4h51.29Z"/>
      </g>
      <g>
        <g>
          <g>
            <path class="cls-15" d="M196.05,202.5s-10.45,14.68-11.94,29.61c-1.49,14.93.25,24.88,4.73,28.62,4.48,3.73,8.96,2.24,11.45-1.24,2.49-3.48-1.49-15.68-1.49-15.68,0,0,4.23-11.7,10.7-19.91,6.47-8.21,7.71-9.46,7.71-9.46,0,0-11.2-12.69-21.15-11.94Z"/>
            <g class="cls-20">
              <path class="cls-12" d="M196.05,202.5s-3.05,4.29-6.09,10.58c4.99,2.01,12.75,6.11,17.67,13.36.6-.87,1.22-1.72,1.86-2.54,6.47-8.21,7.71-9.46,7.71-9.46,0,0-11.2-12.69-21.15-11.94Z"/>
              <path class="cls-14" d="M196.05,202.5s-3.05,4.29-6.09,10.58c4.99,2.01,12.75,6.11,17.67,13.36.6-.87,1.22-1.72,1.86-2.54,6.47-8.21,7.71-9.46,7.71-9.46,0,0-11.2-12.69-21.15-11.94Z"/>
            </g>
            <path class="cls-1" d="M196.05,202.5s-10.45,14.68-11.94,29.61c-1.49,14.93.25,24.88,4.73,28.62,4.48,3.73,8.96,2.24,11.45-1.24,2.49-3.48-1.49-15.68-1.49-15.68,0,0,4.23-11.7,10.7-19.91,6.47-8.21,7.71-9.46,7.71-9.46,0,0-11.2-12.69-21.15-11.94Z"/>
          </g>
          <path class="cls-1" d="M188.84,260.73s-1.74-3.98-1.74-10.2"/>
          <path class="cls-1" d="M195.55,262.22s-2.49-4.23-2.74-11.45"/>
          <g>
            <path class="cls-4" d="M199.29,229.12c0-2.62-5-7.74-11.95-9.96-.9,2.37-1.7,4.89-2.3,7.46,1.88.36,5.24,1.14,7.78,2.5,3.73,1.99,6.47,2.99,6.47,0Z"/>
            <path class="cls-4" d="M195.44,203.39c-.87,1.31-2.58,4-4.42,7.56,1.84.48,3.88,1.25,6.02,2.5,7.71,4.48,9.21,4.98,6.72-1.49-1.55-4.03-5.12-6.8-8.32-8.56Z"/>
          </g>
        </g>
        <g>
          <g>
            <path class="cls-15" d="M277.9,195.25s11.84,13.59,14.79,28.3c2.95,14.71,2.19,24.79-1.9,28.94-4.09,4.15-8.7,3.11-11.51-.12-2.82-3.22-.05-15.75-.05-15.75,0,0-5.36-11.22-12.6-18.76-7.24-7.54-8.6-8.65-8.6-8.65,0,0,9.9-13.73,19.88-13.96Z"/>
            <g class="cls-18">
              <path class="cls-12" d="M277.9,195.25c-9.98.23-19.88,13.96-19.88,13.96,0,0,1.36,1.12,8.6,8.65,1.35,1.4,2.63,2.93,3.83,4.5,2.53-4.23,7.52-10.88,15.66-15.3-4.02-7-8.21-11.82-8.21-11.82Z"/>
              <path class="cls-14" d="M277.9,195.25c-9.98.23-19.88,13.96-19.88,13.96,0,0,1.36,1.12,8.6,8.65,1.35,1.4,2.63,2.93,3.83,4.5,2.53-4.23,7.52-10.88,15.66-15.3-4.02-7-8.21-11.82-8.21-11.82Z"/>
            </g>
            <path class="cls-1" d="M277.9,195.25s11.84,13.59,14.79,28.3c2.95,14.71,2.19,24.79-1.9,28.94-4.09,4.15-8.7,3.11-11.51-.12-2.82-3.22-.05-15.75-.05-15.75,0,0-5.36-11.22-12.6-18.76-7.24-7.54-8.6-8.65-8.6-8.65,0,0,9.9-13.73,19.88-13.96Z"/>
          </g>
          <path class="cls-1" d="M290.79,252.49s1.34-4.13.73-10.32"/>
          <path class="cls-1" d="M284.25,254.63s2.06-4.45,1.6-11.66"/>
          <g>
            <path class="cls-4" d="M277.29,222.06c-.26-2.61,4.21-8.2,10.92-11.08,1.13,2.27,2.18,4.7,3.02,7.2-1.83.54-5.1,1.64-7.5,3.25-3.52,2.35-6.15,3.61-6.44.63Z"/>
            <path class="cls-4" d="M278.59,196.08c1,1.22,2.96,3.73,5.14,7.09-1.78.66-3.73,1.63-5.74,3.08-7.24,5.21-8.67,5.86-6.83-.83,1.15-4.16,4.43-7.27,7.44-9.34Z"/>
          </g>
        </g>
        <g>
          <g>
            <g>
              <path class="cls-15" d="M195.07,189.8s-3.08,10.39-1.92,14.63c1.15,4.23,6.54.38,11.93,5,5.39,4.62,10.38,12.93,30.79,14.47,20.4,1.54,32.73-9.46,36.96-15.62,4.23-6.16,3.85-13.47,11.16-13.86,7.31-.38,1.15-14.63-1.15-16.94,0,0,14.24-21.17,14.24-26.56s-13.47-4.23-30.03.77c0,0-12.32-6.54-34.65-2.69-22.33,3.85-28.87,10.39-28.87,10.39,0,0-27.72,3.46-29.64,6.93-1.92,3.46,3.85,18.09,21.17,23.48Z"/>
              <g class="cls-21">
                <path class="cls-12" d="M283.99,194.42c7.31-.38,1.15-14.63-1.15-16.94,0,0,2.71-4.03,5.76-9.01-8.28-4.32-16.4-6.72-18.56-4.29-4.64,5.22-2.11,15.22,0,24.95,2.11,9.73-6.34,13.95-12.26,22.41-5.92,8.46-14.38-.85-14.38-.85-2.96,12.26-15.64,4.23-15.64,4.23-9.73-2.96-26.22-12.69-22.83-19.45,3.38-6.77,4.23-13.11-1.69-18.6-5.92-5.5-29.53-10.06-29.53-10.06h0c-1.24,4.17,4.75,17.83,21.36,23,0,0-3.08,10.39-1.92,14.63,1.15,4.23,6.54.38,11.93,5,5.39,4.62,10.38,12.93,30.79,14.47,20.4,1.54,32.73-9.46,36.96-15.62,4.23-6.16,3.85-13.47,11.16-13.86Z"/>
                <path class="cls-14" d="M283.99,194.42c7.31-.38,1.15-14.63-1.15-16.94,0,0,2.71-4.03,5.76-9.01-8.28-4.32-16.4-6.72-18.56-4.29-4.64,5.22-2.11,15.22,0,24.95,2.11,9.73-6.34,13.95-12.26,22.41-5.92,8.46-14.38-.85-14.38-.85-2.96,12.26-15.64,4.23-15.64,4.23-9.73-2.96-26.22-12.69-22.83-19.45,3.38-6.77,4.23-13.11-1.69-18.6-5.92-5.5-29.53-10.06-29.53-10.06h0c-1.24,4.17,4.75,17.83,21.36,23,0,0-3.08,10.39-1.92,14.63,1.15,4.23,6.54.38,11.93,5,5.39,4.62,10.38,12.93,30.79,14.47,20.4,1.54,32.73-9.46,36.96-15.62,4.23-6.16,3.85-13.47,11.16-13.86Z"/>
                <path class="cls-12" d="M253.89,196.74c.28,2.44-5.13,5.07-12.09,5.88-6.96.81-12.83-.51-13.11-2.95-.28-2.44,5.13-5.07,12.09-5.88,6.96-.81,12.83.51,13.11,2.94Z"/>
                <path class="cls-14" d="M253.89,196.74c.28,2.44-5.13,5.07-12.09,5.88-6.96.81-12.83-.51-13.11-2.95-.28-2.44,5.13-5.07,12.09-5.88,6.96-.81,12.83.51,13.11,2.94Z"/>
              </g>
              <path class="cls-5" d="M195.07,189.8s-3.08,10.39-1.92,14.63c1.15,4.23,6.54.38,11.93,5,5.39,4.62,10.38,12.93,30.79,14.47,20.4,1.54,32.73-9.46,36.96-15.62,4.23-6.16,3.85-13.47,11.16-13.86,7.31-.38,1.15-14.63-1.15-16.94,0,0,14.24-21.17,14.24-26.56s-13.47-4.23-30.03.77c0,0-12.32-6.54-34.65-2.69-22.33,3.85-28.87,10.39-28.87,10.39,0,0-27.72,3.46-29.64,6.93-1.92,3.46,3.85,18.09,21.17,23.48Z"/>
            </g>
            <g>
              <path class="cls-2" d="M274.69,158.95c-9.95,6.72-6.47,13.44-1.99,17.17,2.73,2.28,7.13,1.96,10.15,1.36,0,0,0,0,0,0,0,0,14.24-21.17,14.24-26.56,0,0-12.44,1.31-22.4,8.03Z"/>
              <path class="cls-2" d="M173.71,166.8c-1.24,4.17,4.75,17.83,21.36,23,0,0,12.68-1.24,8.45-11.44-3.95-9.52-23.92-11.89-29.81-11.56Z"/>
            </g>
          </g>
          <g>
            <g>
              <path class="cls-2" d="M232.41,148.99c-1.32.23-2.57.46-3.78.71,1.99,10.1,5.29,26.92,8.23,26.92s5.19-18.44,6.15-28.77c-3.23.13-6.76.48-10.6,1.14Z"/>
              <path class="cls-2" d="M220.94,173.63c3.06-1.8,2.6-15.33,2.12-22.67-3.72.94-6.79,1.94-9.32,2.91,1.12,6.87,3.94,21.68,7.2,19.76Z"/>
              <path class="cls-2" d="M250.55,167.41c3.14,1.1,4.89-10.15,5.88-18.81-2.7-.44-5.89-.77-9.56-.81-.1,7.12.29,18.44,3.68,19.62Z"/>
            </g>
            <path class="cls-4" d="M246.36,206.35c-1.69-.41-5.32-.92-8.67,1.06-.5.29-.58.98-.16,1.38l5.32,4.98c.43.4,1.12.26,1.36-.27l2.72-5.97c.22-.48-.05-1.06-.56-1.18Z"/>
            <path class="cls-10" d="M233.74,198.01c.73,1.93.44,3.83-.65,4.24-1.09.42-2.57-.81-3.31-2.73-.73-1.93-.44-3.83.65-4.24,1.09-.42,2.57.81,3.31,2.73Z"/>
            <path class="cls-10" d="M248.22,196.63c-.38,2.03.24,3.84,1.39,4.06,1.15.22,2.39-1.25,2.77-3.28.38-2.03-.24-3.84-1.39-4.06-1.15-.22-2.39,1.25-2.77,3.28Z"/>
            <path class="cls-1" d="M244.21,213.51s-7.1,9.64-13.57-.06"/>
            <path class="cls-1" d="M242.84,213.78s4.72,4.89,9.69,2.16,1.99-6.97,1.99-6.97"/>
            <path class="cls-6" d="M221.19,190.3s1.74-6.22,9.95-4.73"/>
            <path class="cls-6" d="M246.07,184.58s6.22-3.73,11.94,2.24"/>
            <line class="cls-8" x1="216.46" y1="206.98" x2="222.43" y2="208.47"/>
            <line class="cls-8" x1="221.68" y1="210.71" x2="216.46" y2="211.7"/>
            <line class="cls-8" x1="222.68" y1="213.45" x2="218.95" y2="215.44"/>
            <line class="cls-8" x1="260.5" y1="204.24" x2="265.73" y2="202.99"/>
            <line class="cls-8" x1="261.5" y1="206.73" x2="264.98" y2="206.73"/>
            <line class="cls-8" x1="262.24" y1="209.22" x2="266.97" y2="210.46"/>
          </g>
        </g>
      </g>
    </g>
  </g>
</svg>