<svg width="476" height="581" viewBox="0 0 476 581" fill="none" xmlns="http://www.w3.org/2000/svg">
<g clip-path="url(#clip0_60_56)">
<path d="M348.204 50.4985L126.567 4.63886C114.19 2.07799 102.036 10.204 99.426 22.8183L5.10357 478.673C2.49894 491.261 10.425 503.569 22.8015 506.13L244.438 551.99C256.828 554.553 269.001 546.404 271.605 533.816L365.928 77.9611C368.538 65.3468 360.593 53.0621 348.204 50.4985ZM260.506 516.821C258.024 528.82 247.021 536.665 235.93 534.37L37.643 493.342C26.5251 491.042 19.5395 479.474 22.0222 467.476L109.853 42.993C114.911 18.5504 124.151 19.2194 135.269 21.5198L174.982 29.7369C177.289 30.2143 178.635 33.2247 177.963 36.4733L177.673 37.8749C176.098 45.4853 180.262 46.3742 185.388 47.4349L277.242 66.4407C282.408 67.5095 286.543 68.3378 288.118 60.7274L288.408 59.3258C289.08 56.0773 291.484 53.8427 293.83 54.3283L333.556 62.548C344.648 64.843 352.969 69.9525 348.337 92.3386L260.506 516.821Z" fill="#263238"/>
<path d="M245.817 50.0214L220.762 44.8373C219.91 44.6609 219.359 43.8229 219.535 42.9715C219.711 42.1201 220.55 41.5696 221.402 41.7459L246.456 46.9301C247.309 47.1064 247.86 47.9444 247.684 48.7958C247.507 49.6473 246.669 50.1977 245.817 50.0214Z" fill="white"/>
<path d="M348.337 92.3385L260.506 516.821C258.024 528.82 247.021 536.665 235.93 534.37L37.643 493.342C26.5251 491.042 19.5395 479.474 22.0222 467.476L109.853 42.993C114.911 18.5504 124.151 19.2194 135.269 21.5198L174.982 29.7369C177.289 30.2143 178.635 33.2247 177.963 36.4733L177.673 37.8748C176.098 45.4853 180.262 46.3742 185.388 47.4349L277.242 66.4406C282.408 67.5095 286.543 68.3378 288.118 60.7274L288.408 59.3258C289.08 56.0773 291.484 53.8427 293.83 54.3283L333.556 62.548C344.648 64.843 352.969 69.9525 348.337 92.3385Z" fill="white"/>
<path d="M128.128 76.3201L122.451 68.2746L130.857 63.1295L131.717 64.5232L124.784 68.7575L129.468 75.3953L128.128 76.3201Z" fill="#C7C7C7"/>
<path d="M326.216 106.147C326.059 106.907 325.313 107.408 324.539 107.248C323.766 107.088 323.277 106.345 323.437 105.572C323.597 104.799 324.34 104.311 325.114 104.471C325.887 104.631 326.376 105.375 326.216 106.147Z" fill="#C7C7C7"/>
<path d="M325.197 111.073C325.04 111.832 324.294 112.334 323.52 112.173C322.747 112.013 322.258 111.27 322.418 110.497C322.578 109.725 323.321 109.236 324.095 109.397C324.868 109.557 325.357 110.3 325.197 111.073Z" fill="#C7C7C7"/>
<path d="M324.178 115.998C324.021 116.757 323.275 117.259 322.501 117.099C321.728 116.939 321.239 116.195 321.399 115.423C321.559 114.65 322.302 114.162 323.076 114.322C323.849 114.482 324.338 115.225 324.178 115.998Z" fill="#C7C7C7"/>
<path d="M204.978 89.6671C205.189 89.5059 205.496 89.5421 205.661 89.74C205.999 90.1516 206.613 90.6883 207.271 90.8109C207.73 90.9058 208.166 90.8458 208.482 90.7063C208.798 90.5668 208.965 90.3554 209.011 90.1327C209.035 90.0148 209.025 89.9308 208.992 89.8283C208.958 89.7257 208.886 89.6151 208.774 89.4962C208.547 89.2717 208.12 89.0196 207.604 88.8035L207.591 88.8008C207.175 88.6327 206.793 88.4307 206.484 88.203C206.166 87.9595 205.91 87.6744 205.781 87.3062C205.683 87.0537 205.669 86.7913 205.726 86.5162C205.84 85.966 206.252 85.5596 206.737 85.332C207.234 85.1072 207.833 85.0535 208.423 85.1756C209.302 85.3574 209.868 85.9253 210.278 86.3242C210.457 86.5117 210.461 86.8265 210.273 87.0063C210.096 87.2018 209.781 87.2049 209.588 87.0147C209.181 86.6027 208.792 86.2354 208.228 86.1187C207.822 86.0346 207.428 86.0897 207.141 86.2215C206.853 86.3534 206.708 86.5281 206.667 86.7246C206.646 86.8294 206.642 86.9107 206.679 87.0002C206.715 87.0896 206.777 87.1845 206.879 87.2875C207.08 87.5066 207.469 87.7375 207.949 87.9323L207.962 87.935C208.415 88.1243 208.823 88.3317 209.155 88.578C209.497 88.84 209.776 89.1436 209.915 89.5276C210.014 89.7801 210.035 90.0715 209.976 90.3597C209.854 90.9491 209.423 91.3791 208.894 91.6247C208.38 91.8599 207.736 91.9316 207.081 91.796C206.084 91.5898 205.364 90.908 204.924 90.3935C204.762 90.1825 204.785 89.8731 204.983 89.7092L204.978 89.6671Z" fill="#C7C7C7"/>
<path d="M212.255 86.6788C212.315 86.3906 212.584 86.214 212.872 86.2737C213.16 86.3334 213.337 86.6022 213.278 86.8904L212.158 92.3002C212.099 92.5884 211.817 92.7622 211.541 92.7053C211.266 92.6483 211.076 92.3768 211.136 92.0886L212.255 86.6788Z" fill="#C7C7C7"/>
<path d="M214.165 89.8058C214.547 87.9589 216.371 86.8065 218.233 87.1917C219.02 87.3545 219.7 87.7684 220.182 88.3462C220.382 88.5653 220.351 88.914 220.132 89.1145C219.915 89.302 219.566 89.2707 219.368 89.0385C219.037 88.6559 218.567 88.3536 218.016 88.2396C217.361 88.104 216.719 88.2308 216.226 88.5659C215.709 88.8824 215.33 89.3914 215.2 90.0202C215.07 90.6489 215.221 91.2402 215.57 91.7358C215.903 92.2418 216.428 92.61 217.084 92.7457C217.543 92.8406 218.005 92.786 218.416 92.6524L218.676 91.3949L217.365 91.1236C217.076 91.064 216.889 90.7793 216.949 90.4912C217.008 90.203 217.29 90.0291 217.579 90.0888L219.401 90.4659C219.69 90.5256 219.893 90.7998 219.833 91.088L219.413 93.1183C219.413 93.1183 219.378 93.2204 219.354 93.2701C219.351 93.2832 219.349 93.2963 219.33 93.3198C219.285 93.406 219.216 93.4738 219.114 93.5072C218.445 93.8332 217.667 93.959 216.88 93.7963C215.018 93.4111 213.798 91.6424 214.178 89.8086L214.165 89.8058Z" fill="#C7C7C7"/>
<path d="M222.358 94.4107C222.301 94.6858 222.03 94.8755 221.754 94.8185C221.466 94.7588 221.292 94.4769 221.349 94.2019L222.452 88.8706C222.487 88.7003 222.585 88.5567 222.738 88.479C222.993 88.368 223.297 88.4855 223.411 88.7276L225.526 93.4407L226.309 89.6551C226.363 89.3931 226.635 89.2034 226.91 89.2604C227.186 89.3174 227.363 89.5862 227.306 89.8612L226.203 95.1925C226.146 95.4676 225.874 95.6572 225.599 95.6003C225.454 95.5704 225.326 95.462 225.256 95.3382C225.246 95.3224 225.225 95.2908 225.215 95.275L223.121 90.5935L222.332 94.4053L222.358 94.4107Z" fill="#C7C7C7"/>
<path d="M233.74 97.2849C232.259 96.9784 231.339 95.5449 231.639 94.091L232.314 90.8293C232.374 90.5412 232.643 90.3646 232.931 90.4243C233.22 90.484 233.397 90.7528 233.337 91.0409L232.662 94.3026C232.475 95.2064 233.058 96.0918 233.962 96.279C234.867 96.4662 235.753 95.8846 235.94 94.9808L236.615 91.7191C236.674 91.431 236.956 91.2571 237.232 91.3141C237.507 91.371 237.684 91.6398 237.624 91.928L236.949 95.1896C236.648 96.6436 235.222 97.5915 233.753 97.2876L233.74 97.2849Z" fill="#C7C7C7"/>
<path d="M241.204 96.2339L240.077 96.0006L239.665 97.9916C239.608 98.2667 239.336 98.4564 239.048 98.3967C238.759 98.337 238.598 98.0578 238.655 97.7828L239.774 92.3729C239.834 92.0847 240.103 91.9082 240.378 91.9651L242.017 92.3042C243.105 92.5294 243.815 93.5915 243.588 94.6918C243.36 95.7921 242.305 96.4618 241.204 96.2339ZM240.288 94.9789L241.415 95.2122C241.953 95.3234 242.446 94.9884 242.565 94.4802C242.676 93.9432 242.343 93.4372 241.806 93.326L240.678 93.0927L240.288 94.9789Z" fill="#C7C7C7"/>
<path d="M166.165 37.8568C166.007 37.9607 165.851 38.0514 165.706 38.158C165.611 38.2203 165.532 38.2723 165.437 38.3346C164.607 37.1247 163.499 36.3354 162.057 36.037C160.615 35.7386 159.284 36.0234 158.043 36.8046C157.991 36.7255 157.941 36.6333 157.876 36.5516C157.772 36.3935 157.679 36.2512 157.575 36.093C157.575 36.093 157.593 36.0695 157.606 36.0723C157.793 35.9607 157.981 35.8492 158.181 35.7404C158.581 35.5227 159.01 35.3656 159.457 35.2532C159.978 35.1151 160.512 35.0479 161.042 35.062C161.299 35.0743 161.554 35.0996 161.811 35.1119C161.89 35.1281 162.44 35.2421 162.466 35.2475C162.637 35.2828 162.802 35.3442 162.97 35.3926C163.431 35.5426 163.855 35.7397 164.265 36.0022C164.556 36.1852 164.84 36.3944 165.094 36.6244C165.37 36.8728 165.618 37.129 165.845 37.4218C165.964 37.5695 166.068 37.7276 166.175 37.8726L166.165 37.8568Z" fill="#C7C7C7"/>
<path d="M158.999 38.2592C158.843 38.0221 158.674 37.7822 158.521 37.5319C159.357 36.9945 160.259 36.7305 161.241 36.8106C162.71 36.9098 163.853 37.5971 164.696 38.8096C164.443 38.9758 164.206 39.1316 163.968 39.2874C163.425 38.4783 162.672 37.9537 161.702 37.753C160.732 37.5522 159.833 37.735 159.013 38.262L158.999 38.2592Z" fill="#C7C7C7"/>
<path d="M163.241 39.7651C163.003 39.9209 162.75 40.0871 162.513 40.2429C162.229 39.8291 161.848 39.5589 161.35 39.4558C160.851 39.3527 160.394 39.4493 159.969 39.7166C159.813 39.4794 159.647 39.2264 159.491 38.9893C160.657 38.1787 162.404 38.4582 163.241 39.7651Z" fill="#C7C7C7"/>
<path d="M161.665 40.6412C161.602 40.9424 161.302 41.1398 161 41.0774C160.699 41.015 160.501 40.7146 160.564 40.4133C160.626 40.112 160.926 39.9147 161.228 39.9771C161.53 40.0395 161.727 40.3399 161.665 40.6412Z" fill="#C7C7C7"/>
<path d="M128.495 31.2645C128.677 30.3869 129.531 29.826 130.41 30.0078C131.288 30.1895 131.85 31.0434 131.668 31.921C131.486 32.7986 130.632 33.3595 129.754 33.1777C128.875 32.996 128.314 32.1421 128.495 31.2645Z" fill="#C7C7C7"/>
<path d="M133.477 32.2954C133.659 31.4177 134.513 30.8569 135.392 31.0386C136.27 31.2204 136.832 32.0742 136.65 32.9519C136.468 33.8295 135.614 34.3903 134.736 34.2086C133.857 34.0268 133.296 33.173 133.477 32.2954Z" fill="#C7C7C7"/>
<path d="M138.459 33.3262C138.641 32.4486 139.495 31.8877 140.374 32.0695C141.252 32.2512 141.814 33.1051 141.632 33.9827C141.451 34.8603 140.596 35.4212 139.718 35.2394C138.839 35.0577 138.278 34.2038 138.459 33.3262Z" fill="#C7C7C7"/>
<path d="M143.428 34.3544C143.61 33.4768 144.464 32.9159 145.343 33.0977C146.221 33.2794 146.783 34.1332 146.601 35.0109C146.419 35.8885 145.565 36.4493 144.687 36.2676C143.808 36.0858 143.247 35.232 143.428 34.3544Z" fill="#C7C7C7"/>
<path d="M148.41 35.3852C148.592 34.5076 149.446 33.9468 150.325 34.1285C151.203 34.3103 151.765 35.1641 151.583 36.0417C151.402 36.9194 150.547 37.4802 149.669 37.2984C148.79 37.1167 148.229 36.2629 148.41 35.3852Z" fill="#C7C7C7"/>
<path d="M332.831 77.1506L319.944 74.4839L321.18 68.5108L334.067 71.1775L332.831 77.1506ZM320.764 73.9569L332.301 76.3442L333.258 71.7203L321.72 69.333L320.764 73.9569Z" fill="#C7C7C7"/>
<path d="M330.355 71.4749L322.056 69.7577L321.243 73.6874L329.542 75.4046L330.355 71.4749Z" fill="#C7C7C7"/>
<path d="M334.918 72.8151L333.777 72.579L333.119 75.7621L334.259 75.9981L334.918 72.8151Z" fill="#C7C7C7"/>
<path d="M52.6545 472.53L51.4876 472.289L50.3791 477.646L48.2027 477.196L48.7665 474.471L44.9119 473.674L44.3482 476.398L42.1718 475.948L43.2803 470.59L42.1135 470.349L48.5088 466.003L52.6545 472.53Z" fill="#EBEBEB"/>
<path d="M242.548 506.153L229.843 503.524L229.469 505.332L242.174 507.96L242.548 506.153Z" fill="#EBEBEB"/>
<path d="M241.621 510.632L228.916 508.004L228.54 509.825L241.244 512.453L241.621 510.632Z" fill="#EBEBEB"/>
<path d="M240.691 515.125L227.987 512.497L227.61 514.317L240.314 516.946L240.691 515.125Z" fill="#EBEBEB"/>
<path d="M145.475 491.886L141.059 494.988L138.251 490.391L139.018 489.922L141.322 493.718L144.957 491.151L145.475 491.886Z" fill="#EBEBEB"/>
<path d="M140.249 498.973C136.63 498.224 134.29 494.667 135.038 491.052C135.786 487.436 139.346 485.099 142.964 485.848C146.583 486.597 148.923 490.154 148.175 493.77C147.427 497.385 143.867 499.722 140.249 498.973ZM142.783 486.726C139.636 486.075 136.564 488.103 135.916 491.233C135.269 494.364 137.297 497.447 140.43 498.096C143.564 498.744 146.649 496.719 147.297 493.588C147.944 490.457 145.916 487.374 142.783 486.726Z" fill="#EBEBEB"/>
<path d="M123.331 198.88C121.915 198.587 121.024 197.214 121.314 195.812L121.961 192.682C122.018 192.406 122.271 192.24 122.547 192.297C122.822 192.354 123.002 192.61 122.945 192.885L122.297 196.016C122.118 196.88 122.68 197.734 123.532 197.91C124.384 198.087 125.251 197.528 125.43 196.664L126.078 193.533C126.135 193.258 126.401 193.095 126.677 193.152C126.952 193.209 127.118 193.462 127.061 193.737L126.414 196.867C126.124 198.269 124.747 199.173 123.344 198.882L123.331 198.88Z" fill="#263238"/>
<path d="M127.892 198.512C128.092 198.335 128.413 198.374 128.561 198.582C128.743 198.825 129.109 199.105 129.45 199.176C129.686 199.225 129.925 199.192 130.088 199.13C130.228 199.05 130.286 198.966 130.3 198.901C130.308 198.862 130.313 198.835 130.292 198.804C130.298 198.778 130.267 198.73 130.196 198.675C130.097 198.558 129.841 198.41 129.54 198.279C129.275 198.17 129.026 198.05 128.825 197.899C128.614 197.732 128.436 197.532 128.328 197.264C128.269 197.087 128.257 196.88 128.297 196.684C128.381 196.277 128.675 195.983 129.022 195.823C129.367 195.676 129.772 195.636 130.178 195.72C130.781 195.845 131.155 196.223 131.402 196.479C131.582 196.667 131.588 196.968 131.411 197.164C131.223 197.344 130.921 197.349 130.731 197.146C130.494 196.906 130.274 196.71 129.986 196.65C129.763 196.604 129.553 196.629 129.429 196.699C129.295 196.753 129.252 196.826 129.244 196.866C129.236 196.905 129.236 196.905 129.244 196.934C129.241 196.947 129.272 196.994 129.317 197.045C129.418 197.148 129.625 197.272 129.916 197.387C130.193 197.499 130.452 197.635 130.677 197.804C130.891 197.958 131.092 198.177 131.198 198.458C131.267 198.65 131.29 198.874 131.249 199.07C131.16 199.502 130.85 199.807 130.487 199.978C130.126 200.135 129.706 200.185 129.273 200.095C128.591 199.954 128.122 199.516 127.838 199.17C127.674 198.972 127.71 198.665 127.908 198.502L127.892 198.512Z" fill="#263238"/>
<path d="M132.322 198.445C132.568 197.253 133.721 196.44 134.927 196.689C136.133 196.939 136.796 197.964 136.628 199.172L136.62 199.212C136.62 199.212 136.607 199.277 136.604 199.29C136.534 199.494 136.321 199.6 136.072 199.549L133.266 198.968C133.265 199.173 133.321 199.43 133.448 199.607C133.589 199.855 133.91 200.085 134.206 200.174C134.515 200.265 134.912 200.265 135.17 200.141C135.394 199.982 135.756 200.084 135.831 200.25C135.925 200.393 135.946 200.684 135.712 200.827C135.198 201.13 134.635 201.205 134.019 201.077C132.813 200.828 132.091 199.627 132.324 198.432L132.322 198.445ZM133.368 198.211L135.859 198.726C135.841 198.354 135.501 197.75 134.754 197.528C133.998 197.412 133.52 197.873 133.368 198.211Z" fill="#263238"/>
<path d="M140.874 198.411C140.822 198.66 140.579 198.842 140.304 198.785C140.107 198.745 139.913 198.759 139.744 198.847C139.552 198.917 139.391 199.034 139.251 199.182C138.985 199.414 138.809 199.733 138.732 199.84L138.385 201.516C138.334 201.765 138.065 201.942 137.803 201.888C137.541 201.833 137.374 201.58 137.428 201.318L138.147 197.847C138.198 197.598 138.451 197.432 138.713 197.486C138.976 197.541 139.158 197.783 139.104 198.045L139.09 198.111C139.09 198.111 139.235 198.004 139.309 197.978C139.638 197.842 140.051 197.763 140.494 197.868C140.756 197.923 140.925 198.163 140.871 198.425L140.874 198.411Z" fill="#263238"/>
<path d="M145.417 200.772L144.983 202.868C144.931 203.117 144.689 203.299 144.426 203.245C144.164 203.19 143.998 202.937 144.052 202.675L144.486 200.579C144.589 200.082 144.25 199.602 143.752 199.499C143.254 199.396 142.793 199.71 142.69 200.208L142.256 202.304C142.256 202.304 142.245 202.356 142.224 202.393C142.141 202.594 141.909 202.724 141.673 202.675C141.411 202.621 141.245 202.368 141.299 202.106L142.017 198.634C142.069 198.386 142.311 198.204 142.587 198.261C142.77 198.298 142.919 198.439 142.962 198.625C143.26 198.509 143.609 198.472 143.95 198.543C144.973 198.754 145.612 199.761 145.406 200.756L145.417 200.772Z" fill="#263238"/>
<path d="M150.792 202.28L150.434 204.01C150.383 204.258 150.127 204.438 149.865 204.383C149.642 204.337 149.493 204.129 149.484 203.909C149.108 204.077 148.672 204.137 148.239 204.047C147.636 203.922 147.176 203.568 146.877 203.096C146.581 202.611 146.472 202.015 146.594 201.425C146.716 200.836 147.055 200.319 147.517 200.005C147.981 199.677 148.544 199.534 149.147 199.659C149.593 199.751 149.956 199.977 150.232 200.293C150.331 200.081 150.537 199.946 150.773 199.995C151.022 200.047 151.201 200.303 151.147 200.565L150.789 202.294L150.792 202.28ZM149.848 202.085C149.924 201.718 149.858 201.377 149.694 201.111C149.533 200.832 149.259 200.638 148.957 200.576C148.656 200.513 148.317 200.566 148.068 200.774C147.813 200.954 147.616 201.241 147.541 201.608C147.465 201.974 147.518 202.313 147.694 202.582C147.845 202.845 148.122 203.026 148.437 203.091C148.751 203.156 149.064 203.098 149.32 202.918C149.576 202.739 149.775 202.439 149.848 202.085Z" fill="#263238"/>
<path d="M156.275 203.005L155.839 205.114C155.787 205.363 155.531 205.542 155.269 205.488C155.007 205.434 154.84 205.181 154.895 204.919L155.331 202.81C155.431 202.325 155.093 201.845 154.608 201.745C154.123 201.645 153.632 201.967 153.529 202.464L153.098 204.547C153.098 204.547 153.09 204.586 153.085 204.613L153.079 204.639C153.079 204.639 153.071 204.678 153.042 204.686L153.034 204.725C152.923 204.866 152.728 204.949 152.532 204.908C152.492 204.9 152.466 204.894 152.44 204.889C152.241 204.793 152.106 204.588 152.154 204.352L152.585 202.269L152.87 200.894C152.927 200.619 153.177 200.466 153.44 200.52C153.623 200.558 153.775 200.685 153.805 200.869C154.115 200.755 154.462 200.731 154.803 200.802C155.354 200.916 155.806 201.242 156.055 201.689C156.461 201.377 157.006 201.258 157.556 201.372C158.566 201.58 159.221 202.577 159.01 203.598L158.579 205.681C158.527 205.93 158.271 206.109 158.009 206.055C157.747 206.001 157.581 205.748 157.635 205.486L158.066 203.403C158.169 202.905 157.846 202.415 157.361 202.315C156.876 202.214 156.388 202.523 156.262 203.002L156.275 203.005Z" fill="#263238"/>
<path d="M160.575 204.291C160.822 203.099 161.975 202.286 163.181 202.535C164.321 202.771 165.05 203.81 164.882 205.018L164.874 205.058C164.874 205.058 164.86 205.123 164.858 205.136C164.788 205.34 164.575 205.446 164.325 205.395L161.533 204.817C161.532 205.022 161.588 205.279 161.715 205.456C161.855 205.703 162.177 205.934 162.473 206.022C162.782 206.114 163.179 206.114 163.437 205.99C163.661 205.831 164.023 205.933 164.098 206.099C164.191 206.241 164.213 206.533 163.978 206.675C163.465 206.979 162.902 207.054 162.286 206.926C161.08 206.677 160.358 205.475 160.591 204.281L160.575 204.291ZM161.622 204.057L164.113 204.572C164.094 204.2 163.754 203.597 163.007 203.374C162.252 203.258 161.774 203.719 161.622 204.057Z" fill="#263238"/>
<path d="M276.752 237.632L117.903 204.764L114.003 223.613L272.852 256.481L276.752 237.632Z" fill="#EBEBEB"/>
<path d="M111.527 243.044L112.6 237.857C112.657 237.582 112.91 237.416 113.186 237.473L116.07 238.069C116.319 238.121 116.512 238.379 116.455 238.654C116.398 238.93 116.129 239.106 115.867 239.052L113.481 238.558L113.147 240.169L115.193 240.593C115.455 240.647 115.632 240.916 115.577 241.178C115.52 241.453 115.251 241.629 114.989 241.575L112.944 241.152L112.608 242.776L114.994 243.27C115.243 243.321 115.433 243.593 115.376 243.868C115.319 244.143 115.053 244.306 114.791 244.252L111.933 243.661L111.92 243.658C111.644 243.601 111.478 243.348 111.532 243.086L111.527 243.044Z" fill="#263238"/>
<path d="M120.771 242.771L120.335 244.88C120.283 245.129 120.027 245.308 119.765 245.254C119.503 245.2 119.337 244.947 119.391 244.685L119.827 242.576C119.927 242.091 119.589 241.611 119.104 241.511C118.619 241.411 118.129 241.733 118.026 242.23L117.595 244.313C117.595 244.313 117.586 244.353 117.581 244.379L117.576 244.405C117.576 244.405 117.567 244.444 117.539 244.452L117.53 244.491C117.419 244.632 117.224 244.715 117.028 244.674C116.988 244.666 116.962 244.66 116.936 244.655C116.737 244.559 116.602 244.354 116.651 244.118L117.082 242.035L117.366 240.66C117.423 240.385 117.673 240.232 117.936 240.286C118.119 240.324 118.271 240.451 118.301 240.635C118.612 240.521 118.958 240.497 119.299 240.568C119.85 240.682 120.302 241.008 120.551 241.455C120.958 241.143 121.502 241.024 122.052 241.138C123.062 241.347 123.717 242.343 123.506 243.364L123.075 245.447C123.023 245.696 122.768 245.875 122.505 245.821C122.243 245.767 122.077 245.514 122.131 245.252L122.562 243.169C122.665 242.671 122.342 242.181 121.857 242.081C121.372 241.98 120.884 242.289 120.758 242.769L120.771 242.771Z" fill="#263238"/>
<path d="M129.094 244.903L128.736 246.632C128.684 246.881 128.429 247.06 128.166 247.006C127.944 246.96 127.795 246.752 127.786 246.531C127.41 246.699 126.973 246.759 126.541 246.67C125.938 246.545 125.478 246.19 125.179 245.719C124.883 245.234 124.774 244.638 124.896 244.048C125.018 243.459 125.357 242.942 125.819 242.627C126.283 242.3 126.846 242.157 127.449 242.282C127.894 242.374 128.258 242.599 128.534 242.916C128.633 242.704 128.838 242.569 129.074 242.618C129.323 242.669 129.503 242.925 129.449 243.187L129.091 244.916L129.094 244.903ZM128.163 244.71C128.239 244.344 128.173 244.002 128.009 243.736C127.848 243.457 127.574 243.264 127.272 243.201C126.97 243.139 126.631 243.192 126.383 243.4C126.127 243.579 125.931 243.866 125.855 244.233C125.78 244.6 125.832 244.939 126.009 245.207C126.16 245.471 126.437 245.651 126.752 245.716C127.066 245.781 127.379 245.723 127.635 245.544C127.891 245.364 128.09 245.064 128.163 244.71Z" fill="#263238"/>
<path d="M132.464 242.158C132.41 242.42 132.168 242.602 131.892 242.545C131.617 242.488 131.466 242.225 131.52 241.963L131.558 241.78C131.613 241.518 131.866 241.351 132.128 241.406C132.39 241.46 132.557 241.713 132.502 241.975L132.464 242.158ZM132.136 243.743L131.426 247.175C131.372 247.437 131.132 247.606 130.857 247.549C130.582 247.492 130.428 247.242 130.482 246.98L131.193 243.548C131.249 243.273 131.503 243.107 131.765 243.161C132.027 243.215 132.196 243.455 132.136 243.743Z" fill="#263238"/>
<path d="M134.478 241.878C134.753 241.935 134.93 242.204 134.875 242.466L133.802 247.653C133.748 247.915 133.479 248.092 133.204 248.035C132.928 247.978 132.765 247.712 132.819 247.45L133.892 242.263C133.946 242.001 134.215 241.824 134.478 241.878Z" fill="#263238"/>
<path d="M267.404 282.81L108.555 249.942L104.655 268.791L263.504 301.659L267.404 282.81Z" fill="#EBEBEB"/>
<path d="M104.63 286.749L103.542 286.524L103.147 288.436C103.092 288.698 102.823 288.874 102.548 288.818C102.273 288.761 102.109 288.494 102.163 288.232L103.237 283.045C103.293 282.77 103.56 282.607 103.822 282.661L105.395 282.987C106.444 283.204 107.11 284.216 106.893 285.263C106.676 286.311 105.666 286.963 104.617 286.746L104.63 286.749ZM103.759 285.544L104.847 285.769C105.358 285.875 105.835 285.55 105.949 285.068C106.055 284.557 105.732 284.067 105.221 283.961L104.133 283.736L103.759 285.544Z" fill="#263238"/>
<path d="M111.289 288.331L110.932 290.06C110.88 290.309 110.624 290.489 110.362 290.434C110.139 290.388 109.991 290.18 109.982 289.96C109.605 290.128 109.169 290.188 108.736 290.098C108.133 289.973 107.673 289.619 107.374 289.147C107.078 288.662 106.967 288.079 107.091 287.476C107.216 286.874 107.553 286.37 108.014 286.056C108.478 285.728 109.054 285.588 109.644 285.71C110.09 285.802 110.454 286.028 110.73 286.344C110.828 286.132 111.034 285.997 111.27 286.046C111.519 286.098 111.699 286.353 111.644 286.615L111.287 288.345L111.289 288.331ZM110.359 288.139C110.434 287.772 110.368 287.431 110.205 287.164C110.044 286.885 109.769 286.692 109.468 286.629C109.166 286.567 108.827 286.62 108.579 286.828C108.323 287.007 108.127 287.295 108.051 287.661C107.975 288.028 108.028 288.367 108.205 288.636C108.355 288.899 108.633 289.079 108.947 289.144C109.262 289.21 109.575 289.151 109.831 288.972C110.086 288.793 110.285 288.492 110.359 288.139Z" fill="#263238"/>
<path d="M112.618 289.576C112.818 289.399 113.139 289.438 113.287 289.646C113.469 289.889 113.835 290.169 114.176 290.24C114.412 290.289 114.651 290.256 114.814 290.194C114.954 290.114 115.012 290.031 115.026 289.965C115.034 289.926 115.039 289.9 115.018 289.868C115.024 289.842 114.993 289.794 114.922 289.739C114.823 289.623 114.567 289.474 114.266 289.343C114.001 289.234 113.752 289.114 113.551 288.963C113.34 288.797 113.162 288.596 113.054 288.328C112.995 288.152 112.983 287.944 113.023 287.748C113.107 287.342 113.401 287.047 113.748 286.887C114.093 286.74 114.498 286.7 114.904 286.785C115.507 286.909 115.881 287.287 116.128 287.543C116.308 287.731 116.314 288.032 116.137 288.228C115.949 288.408 115.647 288.414 115.457 288.21C115.22 287.97 115 287.774 114.712 287.715C114.489 287.668 114.279 287.693 114.155 287.763C114.021 287.817 113.978 287.891 113.97 287.93C113.962 287.969 113.962 287.969 113.97 287.998C113.967 288.011 113.998 288.059 114.042 288.109C114.144 288.212 114.351 288.337 114.642 288.451C114.919 288.563 115.178 288.699 115.403 288.868C115.617 289.022 115.818 289.241 115.924 289.523C115.993 289.715 116.016 289.938 115.975 290.134C115.886 290.566 115.576 290.871 115.213 291.042C114.852 291.2 114.432 291.249 113.999 291.16C113.317 291.019 112.848 290.58 112.564 290.234C112.4 290.036 112.436 289.73 112.634 289.566L112.618 289.576Z" fill="#263238"/>
<path d="M116.853 290.452C117.053 290.275 117.373 290.314 117.522 290.523C117.704 290.765 118.07 291.046 118.411 291.116C118.647 291.165 118.886 291.133 119.049 291.071C119.189 290.99 119.247 290.907 119.26 290.841C119.269 290.802 119.274 290.776 119.253 290.744C119.259 290.718 119.227 290.671 119.157 290.615C119.058 290.499 118.801 290.35 118.5 290.22C118.236 290.11 117.987 289.99 117.786 289.84C117.574 289.673 117.397 289.472 117.289 289.204C117.229 289.028 117.218 288.82 117.258 288.624C117.342 288.218 117.636 287.923 117.983 287.763C118.328 287.616 118.733 287.577 119.139 287.661C119.742 287.786 120.115 288.163 120.363 288.419C120.543 288.607 120.549 288.909 120.372 289.104C120.184 289.284 119.882 289.29 119.692 289.087C119.454 288.846 119.235 288.651 118.947 288.591C118.724 288.545 118.514 288.57 118.39 288.64C118.256 288.694 118.213 288.767 118.205 288.806C118.197 288.845 118.197 288.845 118.204 288.874C118.202 288.887 118.233 288.935 118.277 288.985C118.379 289.088 118.586 289.213 118.876 289.328C119.154 289.44 119.413 289.575 119.638 289.745C119.852 289.898 120.053 290.117 120.159 290.399C120.228 290.591 120.25 290.814 120.21 291.01C120.12 291.443 119.811 291.748 119.448 291.918C119.087 292.076 118.667 292.125 118.234 292.036C117.552 291.895 117.082 291.456 116.785 291.108C116.621 290.91 116.657 290.603 116.855 290.439L116.853 290.452Z" fill="#263238"/>
<path d="M127.426 290.099L125.263 293.217C125.263 293.217 125.242 293.254 125.21 293.274C125.207 293.288 125.176 293.308 125.16 293.319L125.147 293.316C125.131 293.326 125.099 293.347 125.086 293.344C125.086 293.344 125.086 293.344 125.084 293.358C125.055 293.365 125.036 293.389 124.997 293.381C124.984 293.378 124.957 293.372 124.929 293.38L124.915 293.377C124.915 293.377 124.863 293.367 124.824 293.358C124.797 293.353 124.771 293.348 124.745 293.342L124.732 293.339C124.732 293.339 124.695 293.318 124.669 293.313L124.656 293.31C124.656 293.31 124.612 293.26 124.591 293.228C124.591 293.228 124.56 293.181 124.549 293.165L124.536 293.162C124.526 293.146 124.505 293.115 124.508 293.102C124.5 293.073 124.492 293.044 124.482 293.028L124.154 291.376L123.21 292.765C123.21 292.765 123.176 292.799 123.157 292.822C123.157 292.822 123.11 292.854 123.091 292.877C123.075 292.887 123.044 292.908 123.028 292.919C122.983 292.937 122.967 292.947 122.938 292.955L122.925 292.952C122.912 292.949 122.886 292.944 122.87 292.954L122.857 292.951C122.857 292.951 122.791 292.938 122.765 292.932C122.726 292.924 122.7 292.919 122.673 292.914L122.647 292.908C122.647 292.908 122.611 292.887 122.598 292.884C122.598 292.884 122.593 292.883 122.584 292.881C122.584 292.881 122.524 292.842 122.517 292.813C122.517 292.813 122.496 292.781 122.472 292.763L122.459 292.76C122.459 292.76 122.441 292.715 122.433 292.686C122.433 292.686 122.418 292.628 122.408 292.613L121.673 288.895C121.617 288.638 121.776 288.398 122.047 288.344C122.275 288.296 122.532 288.445 122.569 288.726L123.114 291.311L124.034 289.971C124.148 289.817 124.34 289.748 124.524 289.786C124.72 289.827 124.869 289.967 124.899 290.15L125.225 291.748L126.752 289.591C126.895 289.361 127.195 289.3 127.396 289.451C127.61 289.605 127.687 289.894 127.52 290.105L127.426 290.099Z" fill="#263238"/>
<path d="M128.905 293.588C128.603 293.13 128.494 292.533 128.622 291.918C128.749 291.302 129.075 290.85 129.542 290.51C130.022 290.172 130.585 290.029 131.188 290.154C131.791 290.279 132.248 290.646 132.518 291.126C132.825 291.626 132.939 292.196 132.817 292.786C132.695 293.375 132.353 293.905 131.881 294.204C131.427 294.547 130.851 294.688 130.275 294.568C129.698 294.449 129.214 294.076 128.905 293.588ZM129.566 292.113C129.487 292.493 129.543 292.819 129.688 293.108C129.867 293.364 130.132 293.541 130.459 293.609C130.761 293.672 131.074 293.613 131.34 293.45C131.614 293.247 131.795 292.97 131.873 292.59C131.952 292.211 131.896 291.885 131.722 291.603C131.54 291.36 131.292 291.172 130.977 291.107C130.649 291.04 130.318 291.121 130.07 291.261C129.825 291.456 129.642 291.746 129.566 292.113Z" fill="#263238"/>
<path d="M137.216 291.879C137.164 292.128 136.922 292.31 136.646 292.253C136.45 292.212 136.255 292.227 136.087 292.315C135.894 292.384 135.733 292.501 135.593 292.65C135.327 292.882 135.151 293.2 135.088 293.31L134.741 294.987C134.689 295.236 134.42 295.412 134.158 295.358C133.896 295.304 133.729 295.051 133.784 294.789L134.502 291.318C134.553 291.069 134.806 290.903 135.069 290.957C135.331 291.011 135.51 291.267 135.459 291.516L135.445 291.581C135.445 291.581 135.59 291.475 135.664 291.449C135.993 291.312 136.406 291.234 136.849 291.339C137.111 291.393 137.278 291.646 137.226 291.895L137.216 291.879Z" fill="#263238"/>
<path d="M141.417 296.355C141.365 296.604 141.109 296.783 140.847 296.729C140.611 296.68 140.463 296.471 140.454 296.251C140.08 296.406 139.615 296.474 139.182 296.384C137.989 296.137 137.254 294.933 137.498 293.754C137.742 292.575 138.913 291.739 140.093 291.983C140.525 292.072 140.915 292.303 141.197 292.594L141.538 290.943C141.593 290.681 141.846 290.515 142.121 290.572C142.396 290.629 142.547 290.892 142.495 291.141L141.775 294.626L141.417 296.355ZM139.892 292.952C139.578 292.887 139.262 292.958 138.99 293.148C138.721 293.325 138.525 293.612 138.452 293.965C138.379 294.319 138.448 294.647 138.624 294.916C138.801 295.185 139.06 295.389 139.375 295.454C139.689 295.519 140.005 295.448 140.276 295.258C140.545 295.082 140.742 294.794 140.812 294.454C140.885 294.1 140.819 293.759 140.642 293.49C140.466 293.221 140.22 293.02 139.892 292.952Z" fill="#263238"/>
<path d="M258.056 327.988L99.2069 295.12L95.3067 313.969L254.156 346.837L258.056 327.988Z" fill="#EBEBEB"/>
<path d="M100.535 337.07C100.554 336.979 100.649 336.916 100.74 336.935C100.845 336.957 100.908 337.052 100.889 337.144L99.8994 341.925C99.8804 342.016 99.7855 342.079 99.6806 342.057C99.5888 342.038 99.5264 341.943 99.5454 341.852L100.535 337.07Z" fill="#263238"/>
<path d="M107.546 340.119L106.877 343.355C106.858 343.447 106.763 343.509 106.671 343.49C106.58 343.471 106.517 343.376 106.536 343.284L106.647 342.747C106.246 343.101 105.701 343.289 105.15 343.175C104.207 342.98 103.614 342.01 103.817 341.028C104.021 340.046 104.949 339.391 105.893 339.586C106.444 339.7 106.872 340.076 107.097 340.573L107.206 340.049C107.227 339.944 107.319 339.895 107.411 339.914C107.503 339.933 107.565 340.028 107.546 340.119ZM106.856 341.67C107.024 340.858 106.554 340.092 105.807 339.937C105.06 339.782 104.324 340.3 104.156 341.112C103.988 341.924 104.474 342.68 105.208 342.832C105.942 342.984 106.691 342.47 106.856 341.67Z" fill="#263238"/>
<path d="M111.815 344.267C111.623 345.197 110.705 345.8 109.774 345.607C109.512 345.553 109.277 345.436 109.062 345.282C108.994 345.214 108.977 345.101 109.032 345.03C109.091 344.947 109.204 344.929 109.285 345C109.449 345.13 109.625 345.207 109.847 345.254C110.595 345.408 111.307 344.941 111.461 344.194L111.553 343.749C111.162 344.119 110.62 344.293 110.07 344.179C109.126 343.984 108.544 343.03 108.75 342.035C108.956 341.039 109.866 340.408 110.81 340.603C111.36 340.717 111.802 341.096 112.001 341.587L112.109 341.064C112.128 340.972 112.223 340.91 112.328 340.931C112.42 340.95 112.482 341.045 112.463 341.137L111.815 344.267ZM111.776 342.675C111.941 341.876 111.468 341.122 110.734 340.97C110 340.818 109.266 341.322 109.101 342.121C108.936 342.92 109.406 343.687 110.14 343.839C110.874 343.991 111.61 343.474 111.776 342.675Z" fill="#263238"/>
<path d="M114.165 341.503C114.186 341.398 114.279 341.349 114.383 341.37C114.475 341.389 114.538 341.484 114.519 341.576L114.356 342.362C114.356 342.362 114.393 342.315 114.427 342.281C114.792 341.906 115.356 341.558 116.051 341.702C116.143 341.721 116.205 341.816 116.186 341.907C116.167 341.999 116.073 342.061 115.981 342.042C115.509 341.945 115.14 342.141 114.823 342.417C114.506 342.693 114.299 343.033 114.217 343.166C114.198 343.19 114.196 343.203 114.193 343.216L113.868 344.788C113.846 344.893 113.754 344.942 113.662 344.923C113.557 344.901 113.495 344.806 113.514 344.714L114.183 341.479L114.165 341.503Z" fill="#263238"/>
<path d="M116.425 343.664C116.63 342.668 117.572 342.016 118.542 342.217C119.512 342.418 120.056 343.295 119.926 344.252L119.921 344.278C119.902 344.37 119.809 344.419 119.718 344.4L116.768 343.79C116.644 344.584 117.139 345.301 117.873 345.453C118.345 345.55 118.842 345.394 119.162 345.036C119.233 344.955 119.341 344.964 119.409 345.033C119.477 345.101 119.481 345.212 119.41 345.292C118.992 345.725 118.403 345.931 117.787 345.803C116.816 345.603 116.211 344.631 116.414 343.648L116.425 343.664ZM116.851 343.452L119.578 344.016C119.598 343.324 119.125 342.706 118.469 342.571C117.814 342.435 117.123 342.798 116.851 343.452Z" fill="#263238"/>
<path d="M120.895 344.589C121.101 343.593 122.043 342.941 123.013 343.142C123.983 343.343 124.526 344.22 124.397 345.177L124.391 345.203C124.372 345.295 124.28 345.344 124.188 345.325L121.238 344.715C121.115 345.509 121.609 346.226 122.344 346.378C122.816 346.475 123.313 346.319 123.633 345.961C123.704 345.881 123.812 345.889 123.88 345.958C123.947 346.026 123.952 346.137 123.881 346.218C123.463 346.65 122.873 346.856 122.257 346.729C121.287 346.528 120.682 345.556 120.885 344.573L120.895 344.589ZM121.322 344.377L124.049 344.941C124.069 344.249 123.595 343.631 122.94 343.496C122.284 343.36 121.594 343.723 121.322 344.377Z" fill="#263238"/>
<path d="M129.402 344.642C129.383 344.733 129.275 344.793 129.196 344.777L128.737 344.682L128.195 347.302C128.16 347.472 128.312 347.599 128.403 347.618C128.495 347.637 128.568 347.747 128.549 347.839C128.53 347.931 128.422 347.99 128.33 347.971C127.976 347.898 127.755 347.579 127.831 347.213L128.373 344.593L127.927 344.501C127.757 344.465 127.776 344.374 127.792 344.295C127.808 344.216 127.827 344.125 127.998 344.16L128.444 344.252L128.72 342.916C128.739 342.824 128.847 342.765 128.926 342.781C129.017 342.8 129.103 342.913 129.087 342.992L128.811 344.328L129.27 344.423C129.361 344.442 129.421 344.55 129.405 344.629L129.402 344.642Z" fill="#263238"/>
<path d="M132.545 345.114C133.488 345.31 134.078 346.292 133.878 347.262C133.677 348.231 132.746 348.899 131.802 348.703C130.858 348.508 130.268 347.526 130.469 346.556C130.669 345.587 131.601 344.919 132.545 345.114ZM131.875 348.35C132.609 348.502 133.358 347.987 133.524 347.188C133.689 346.389 133.208 345.607 132.474 345.455C131.74 345.303 130.988 345.83 130.823 346.63C130.657 347.429 131.141 348.198 131.875 348.35Z" fill="#263238"/>
<path d="M140.782 346.996L140.113 350.232C140.094 350.324 139.999 350.386 139.907 350.367C139.815 350.348 139.753 350.253 139.772 350.161L139.883 349.624C139.482 349.978 138.937 350.166 138.386 350.052C137.442 349.857 136.85 348.887 137.053 347.905C137.256 346.923 138.185 346.268 139.129 346.463C139.679 346.577 140.121 346.955 140.333 347.45L140.441 346.926C140.463 346.821 140.555 346.772 140.647 346.791C140.739 346.81 140.801 346.905 140.782 346.996ZM140.092 348.547C140.26 347.735 139.79 346.969 139.043 346.814C138.295 346.659 137.559 347.176 137.391 347.989C137.223 348.801 137.709 349.557 138.444 349.709C139.178 349.861 139.927 349.346 140.092 348.547Z" fill="#263238"/>
<path d="M142.777 345.811C142.796 345.719 142.891 345.657 142.983 345.676C143.088 345.698 143.15 345.793 143.131 345.884L142.142 350.665C142.123 350.757 142.028 350.819 141.923 350.798C141.832 350.779 141.769 350.684 141.788 350.592L142.777 345.811Z" fill="#263238"/>
<path d="M144.6 346.188C144.619 346.096 144.714 346.034 144.806 346.053C144.91 346.075 144.973 346.17 144.954 346.261L143.965 351.042C143.946 351.134 143.851 351.196 143.746 351.175C143.654 351.156 143.592 351.061 143.611 350.969L144.6 346.188Z" fill="#263238"/>
<path d="M147.453 351.163C147.522 351.096 147.643 351.107 147.708 351.189C147.919 351.424 148.263 351.741 148.722 351.836C148.998 351.893 149.266 351.852 149.45 351.754C149.645 351.671 149.782 351.536 149.818 351.366C149.853 351.195 149.799 351.061 149.648 350.866C149.515 350.716 149.285 350.572 148.941 350.447L148.928 350.444C148.614 350.311 148.355 350.175 148.175 349.988C147.979 349.811 147.858 349.54 147.915 349.264C147.971 348.989 148.183 348.76 148.454 348.638C148.694 348.538 149.014 348.508 149.381 348.584C149.84 348.679 150.125 348.957 150.375 349.2C150.443 349.269 150.445 349.392 150.376 349.46C150.307 349.527 150.197 349.532 150.129 349.463C149.902 349.239 149.678 349.001 149.324 348.928C149.036 348.868 148.783 348.898 148.599 348.996C148.43 349.084 148.322 349.212 148.292 349.356C148.262 349.5 148.306 349.619 148.429 349.753C148.564 349.891 148.794 350.034 149.111 350.154L149.124 350.157C149.454 350.28 149.721 350.444 149.943 350.627C150.147 350.833 150.26 351.143 150.198 351.444C150.136 351.746 149.916 351.946 149.642 352.081C149.355 352.213 149.045 352.258 148.691 352.184C148.114 352.065 147.712 351.695 147.473 351.4C147.408 351.318 147.427 351.226 147.495 351.158L147.453 351.163Z" fill="#263238"/>
<path d="M153.224 349.571C153.205 349.663 153.097 349.722 153.019 349.706L152.56 349.611L152.018 352.231C151.982 352.401 152.134 352.528 152.226 352.547C152.317 352.566 152.39 352.677 152.371 352.768C152.352 352.86 152.244 352.92 152.152 352.901C151.798 352.827 151.577 352.508 151.653 352.142L152.195 349.522L151.75 349.43C151.579 349.394 151.598 349.303 151.614 349.224C151.631 349.145 151.65 349.054 151.82 349.089L152.266 349.181L152.542 347.845C152.561 347.754 152.669 347.694 152.748 347.71C152.84 347.729 152.926 347.843 152.909 347.921L152.633 349.257L153.092 349.352C153.184 349.371 153.243 349.479 153.227 349.558L153.224 349.571Z" fill="#263238"/>
<path d="M157.708 350.499L157.039 353.734C157.02 353.826 156.925 353.888 156.833 353.869C156.741 353.85 156.679 353.755 156.698 353.664L156.809 353.126C156.408 353.481 155.863 353.668 155.312 353.554C154.368 353.359 153.776 352.39 153.979 351.407C154.182 350.425 155.111 349.77 156.055 349.965C156.605 350.079 157.034 350.455 157.259 350.952L157.367 350.428C157.389 350.323 157.481 350.274 157.573 350.293C157.665 350.312 157.727 350.407 157.708 350.499ZM157.018 352.05C157.186 351.237 156.716 350.471 155.968 350.316C155.221 350.162 154.485 350.679 154.317 351.491C154.149 352.303 154.635 353.059 155.369 353.211C156.104 353.363 156.853 352.849 157.018 352.05Z" fill="#263238"/>
<path d="M160.488 351.074C160.469 351.165 160.361 351.225 160.282 351.209L159.823 351.114L159.281 353.734C159.246 353.904 159.397 354.031 159.489 354.05C159.581 354.069 159.654 354.179 159.635 354.271C159.616 354.363 159.508 354.422 159.416 354.403C159.062 354.33 158.841 354.011 158.917 353.645L159.459 351.025L159.013 350.933C158.842 350.897 158.861 350.806 158.878 350.727C158.894 350.648 158.913 350.557 159.083 350.592L159.529 350.684L159.806 349.348C159.825 349.256 159.933 349.197 160.011 349.213C160.103 349.232 160.189 349.345 160.173 349.424L159.896 350.76L160.355 350.855C160.447 350.874 160.507 350.982 160.49 351.061L160.488 351.074Z" fill="#263238"/>
<path d="M161.276 352.944C161.482 351.949 162.424 351.297 163.394 351.498C164.364 351.698 164.907 352.576 164.778 353.532L164.772 353.558C164.753 353.65 164.661 353.699 164.569 353.68L161.619 353.07C161.496 353.864 161.99 354.581 162.725 354.733C163.197 354.831 163.694 354.674 164.014 354.317C164.085 354.236 164.193 354.245 164.261 354.313C164.329 354.382 164.333 354.492 164.262 354.573C163.844 355.006 163.255 355.211 162.638 355.084C161.668 354.883 161.063 353.911 161.266 352.929L161.276 352.944ZM161.703 352.732L164.43 353.296C164.45 352.604 163.976 351.987 163.321 351.851C162.665 351.716 161.975 352.078 161.703 352.732Z" fill="#263238"/>
<path d="M171.219 354.647C171.331 354.041 170.951 353.43 170.335 353.303C169.719 353.175 169.115 353.583 168.99 354.185L168.581 356.163L168.578 356.176C168.578 356.176 168.507 356.257 168.465 356.262C168.436 356.27 168.407 356.278 168.368 356.269L168.328 356.261L168.315 356.259C168.302 356.256 168.292 356.24 168.281 356.224C168.281 356.224 168.268 356.222 168.258 356.206L168.237 356.174C168.237 356.174 168.24 356.161 168.227 356.158C168.227 356.158 168.228 356.154 168.229 356.145C168.229 356.145 168.229 356.145 168.232 356.132C168.232 356.132 168.235 356.119 168.237 356.106L168.243 356.08L168.652 354.102C168.777 353.499 168.397 352.888 167.768 352.758C167.139 352.628 166.548 353.038 166.423 353.641L166.017 355.605C166.017 355.605 165.969 355.705 165.908 355.733C165.908 355.733 165.877 355.754 165.864 355.751C165.864 355.751 165.85 355.749 165.837 355.746L165.798 355.738C165.732 355.724 165.68 355.645 165.681 355.577L166.361 352.289C166.38 352.197 166.475 352.135 166.567 352.154C166.672 352.176 166.721 352.268 166.702 352.36L166.632 352.7C166.959 352.44 167.393 352.325 167.852 352.42C168.415 352.537 168.822 352.949 168.979 353.445C169.336 353.041 169.884 352.84 170.435 352.954C171.247 353.123 171.754 353.91 171.589 354.709L171.182 356.674C171.163 356.766 171.069 356.828 170.977 356.809C170.885 356.79 170.823 356.695 170.842 356.604L171.248 354.639L171.219 354.647Z" fill="#263238"/>
<path d="M172.722 355.313C172.928 354.317 173.87 353.665 174.84 353.866C175.81 354.067 176.353 354.944 176.223 355.901L176.218 355.927C176.199 356.018 176.107 356.068 176.015 356.049L173.065 355.438C172.942 356.232 173.436 356.949 174.17 357.101C174.642 357.199 175.14 357.042 175.46 356.685C175.531 356.604 175.639 356.613 175.706 356.681C175.774 356.75 175.779 356.86 175.707 356.941C175.29 357.374 174.7 357.58 174.084 357.452C173.114 357.251 172.508 356.279 172.712 355.297L172.722 355.313ZM173.149 355.1L175.876 355.665C175.896 354.972 175.422 354.355 174.767 354.219C174.111 354.084 173.421 354.446 173.149 355.1Z" fill="#263238"/>
<path d="M180.082 356.48C180.207 355.878 179.827 355.267 179.198 355.136C178.569 355.006 177.994 355.406 177.853 356.019L177.444 357.997C177.444 357.997 177.417 358.06 177.388 358.068C177.354 358.101 177.296 358.117 177.244 358.106L177.204 358.098C177.204 358.098 177.123 358.026 177.105 357.982C177.105 357.982 177.108 357.969 177.111 357.956L177.113 357.942L177.791 354.668C177.81 354.576 177.905 354.514 177.997 354.533C178.088 354.552 178.151 354.647 178.132 354.738L178.061 355.079C178.389 354.819 178.838 354.693 179.284 354.785C180.097 354.954 180.617 355.744 180.452 356.543L180.048 358.495C180.026 358.6 179.934 358.649 179.842 358.63C179.751 358.611 179.688 358.516 179.707 358.424L180.111 356.473L180.082 356.48Z" fill="#263238"/>
<path d="M183.523 355.84C183.504 355.932 183.396 355.991 183.317 355.975L182.859 355.88L182.317 358.5C182.281 358.67 182.433 358.797 182.525 358.816C182.616 358.835 182.689 358.946 182.67 359.038C182.651 359.129 182.543 359.189 182.451 359.17C182.097 359.097 181.876 358.778 181.952 358.411L182.494 355.791L182.048 355.699C181.878 355.664 181.897 355.572 181.913 355.493C181.929 355.415 181.948 355.323 182.119 355.358L182.565 355.451L182.841 354.114C182.86 354.023 182.968 353.963 183.047 353.979C183.139 353.998 183.224 354.112 183.208 354.19L182.932 355.526L183.391 355.621C183.482 355.64 183.542 355.748 183.526 355.827L183.523 355.84Z" fill="#263238"/>
<path d="M184.399 358.808C184.468 358.74 184.589 358.752 184.654 358.833C184.865 359.068 185.21 359.385 185.668 359.48C185.944 359.537 186.212 359.497 186.396 359.399C186.591 359.316 186.728 359.181 186.764 359.01C186.799 358.84 186.745 358.706 186.594 358.511C186.461 358.36 186.231 358.217 185.887 358.091L185.874 358.089C185.56 357.955 185.301 357.82 185.121 357.632C184.925 357.455 184.804 357.184 184.861 356.909C184.917 356.634 185.129 356.405 185.4 356.283C185.64 356.182 185.96 356.153 186.327 356.229C186.786 356.324 187.071 356.601 187.321 356.845C187.389 356.913 187.391 357.037 187.322 357.104C187.253 357.172 187.143 357.176 187.075 357.108C186.848 356.883 186.624 356.646 186.27 356.572C185.982 356.513 185.729 356.542 185.545 356.641C185.376 356.729 185.268 356.857 185.238 357.001C185.208 357.145 185.252 357.263 185.375 357.398C185.51 357.535 185.74 357.679 186.057 357.799L186.07 357.801C186.401 357.924 186.667 358.089 186.889 358.271C187.093 358.477 187.206 358.788 187.144 359.089C187.082 359.39 186.862 359.591 186.588 359.725C186.301 359.857 185.991 359.902 185.637 359.829C185.06 359.71 184.658 359.34 184.419 359.044C184.354 358.962 184.373 358.871 184.441 358.803L184.399 358.808Z" fill="#263238"/>
<path d="M191.264 356.226C191.283 356.134 191.378 356.072 191.469 356.091C191.574 356.113 191.637 356.208 191.618 356.299L191.582 356.47C191.561 356.574 191.463 356.65 191.358 356.628C191.266 356.609 191.207 356.501 191.228 356.396L191.264 356.226ZM191.022 357.392C191.044 357.287 191.136 357.238 191.228 357.257C191.333 357.278 191.395 357.373 191.376 357.465L190.707 360.7C190.688 360.792 190.593 360.854 190.488 360.833C190.396 360.814 190.334 360.719 190.353 360.627L191.022 357.392Z" fill="#263238"/>
<path d="M195.382 359.646C195.507 359.044 195.127 358.432 194.498 358.302C193.869 358.172 193.294 358.572 193.153 359.185L192.744 361.163C192.744 361.163 192.717 361.226 192.689 361.233C192.654 361.267 192.596 361.283 192.544 361.272L192.505 361.264C192.505 361.264 192.424 361.192 192.406 361.148C192.406 361.148 192.408 361.134 192.411 361.121L192.414 361.108L193.091 357.834C193.11 357.742 193.205 357.68 193.297 357.699C193.389 357.717 193.451 357.812 193.432 357.904L193.362 358.245C193.689 357.985 194.139 357.859 194.584 357.951C195.397 358.119 195.917 358.91 195.752 359.709L195.348 361.661C195.327 361.766 195.234 361.815 195.143 361.796C195.051 361.777 194.988 361.682 195.007 361.59L195.411 359.639L195.382 359.646Z" fill="#263238"/>
<path d="M201.026 359.462C201.007 359.553 200.899 359.613 200.82 359.597L200.361 359.502L199.819 362.122C199.784 362.292 199.936 362.419 200.027 362.438C200.119 362.457 200.192 362.567 200.173 362.659C200.154 362.751 200.046 362.81 199.954 362.791C199.6 362.718 199.379 362.399 199.455 362.032L199.997 359.413L199.551 359.32C199.381 359.285 199.4 359.193 199.416 359.115C199.432 359.036 199.451 358.945 199.622 358.98L200.067 359.072L200.344 357.736C200.363 357.644 200.471 357.585 200.55 357.601C200.641 357.62 200.727 357.733 200.711 357.812L200.435 359.148L200.893 359.243C200.985 359.262 201.045 359.37 201.029 359.449L201.026 359.462Z" fill="#263238"/>
<path d="M201.815 361.332C202.021 360.337 202.962 359.685 203.932 359.885C204.903 360.086 205.446 360.964 205.316 361.92L205.311 361.946C205.292 362.038 205.2 362.087 205.108 362.068L202.158 361.458C202.035 362.252 202.529 362.969 203.263 363.121C203.735 363.219 204.232 363.062 204.552 362.705C204.624 362.624 204.731 362.632 204.799 362.701C204.867 362.77 204.871 362.88 204.8 362.961C204.382 363.394 203.793 363.599 203.177 363.472C202.207 363.271 201.601 362.299 201.804 361.317L201.815 361.332ZM202.255 361.123L204.982 361.687C205.002 360.995 204.528 360.377 203.872 360.242C203.217 360.106 202.527 360.469 202.255 361.123Z" fill="#263238"/>
<path d="M206.726 360.655C206.748 360.55 206.84 360.501 206.945 360.523C207.037 360.541 207.099 360.636 207.08 360.728L206.918 361.514C206.918 361.514 206.955 361.467 206.989 361.433C207.354 361.058 207.918 360.71 208.613 360.854C208.705 360.873 208.767 360.968 208.748 361.059C208.729 361.151 208.634 361.213 208.542 361.195C208.071 361.097 207.689 361.291 207.372 361.567C207.068 361.846 206.848 362.182 206.766 362.316C206.747 362.339 206.744 362.352 206.742 362.365L206.416 363.937C206.395 364.042 206.302 364.091 206.211 364.072C206.106 364.051 206.043 363.956 206.062 363.864L206.732 360.629L206.726 360.655Z" fill="#263238"/>
<path d="M214.825 363.669C214.937 363.064 214.558 362.453 213.941 362.325C213.325 362.198 212.734 362.608 212.61 363.211L212.2 365.189L212.198 365.202C212.198 365.202 212.126 365.283 212.084 365.288C212.055 365.295 212.026 365.303 211.987 365.295L211.948 365.287L211.935 365.284C211.922 365.281 211.911 365.265 211.901 365.25C211.901 365.25 211.888 365.247 211.877 365.231L211.856 365.2C211.856 365.2 211.859 365.186 211.846 365.184C211.846 365.184 211.847 365.179 211.849 365.171C211.849 365.171 211.849 365.171 211.851 365.158C211.851 365.158 211.854 365.144 211.857 365.131L211.862 365.105L212.272 363.127C212.396 362.525 212.004 361.911 211.388 361.783C210.771 361.656 210.167 362.063 210.043 362.666L209.636 364.631C209.636 364.631 209.588 364.73 209.528 364.759C209.528 364.759 209.496 364.779 209.483 364.777C209.483 364.777 209.47 364.774 209.457 364.771L209.417 364.763C209.352 364.75 209.313 364.673 209.3 364.602L209.981 361.314C210 361.223 210.094 361.161 210.186 361.179C210.291 361.201 210.34 361.293 210.321 361.385L210.251 361.726C210.578 361.465 211.012 361.35 211.471 361.445C212.035 361.562 212.442 361.974 212.599 362.471C212.956 362.067 213.503 361.866 214.054 361.98C214.867 362.148 215.387 362.939 215.221 363.738L214.815 365.702C214.796 365.794 214.701 365.856 214.609 365.837C214.517 365.818 214.455 365.724 214.474 365.632L214.881 363.667L214.825 363.669Z" fill="#263238"/>
<path d="M216.114 365.37C216.183 365.302 216.304 365.314 216.369 365.396C216.58 365.63 216.924 365.948 217.383 366.043C217.659 366.1 217.927 366.059 218.111 365.961C218.306 365.878 218.443 365.743 218.479 365.573C218.514 365.402 218.46 365.268 218.308 365.073C218.176 364.923 217.945 364.779 217.602 364.654L217.589 364.651C217.275 364.518 217.016 364.382 216.836 364.195C216.64 364.017 216.518 363.746 216.575 363.471C216.632 363.196 216.844 362.967 217.115 362.845C217.355 362.745 217.675 362.715 218.042 362.791C218.501 362.886 218.786 363.164 219.036 363.407C219.104 363.475 219.106 363.599 219.037 363.667C218.968 363.734 218.858 363.739 218.79 363.67C218.563 363.446 218.339 363.208 217.985 363.135C217.696 363.075 217.444 363.105 217.26 363.203C217.091 363.291 216.983 363.419 216.953 363.563C216.923 363.707 216.967 363.826 217.089 363.96C217.225 364.098 217.455 364.241 217.772 364.361L217.785 364.364C218.115 364.487 218.382 364.651 218.604 364.834C218.808 365.04 218.921 365.35 218.859 365.651C218.796 365.953 218.577 366.153 218.303 366.288C218.016 366.419 217.706 366.465 217.352 366.391C216.775 366.272 216.373 365.902 216.134 365.606C216.069 365.525 216.087 365.433 216.156 365.365L216.114 365.37Z" fill="#263238"/>
<path d="M224.293 364.098C225.237 364.294 225.827 365.276 225.626 366.246C225.426 367.215 224.495 367.883 223.551 367.688C222.607 367.492 222.017 366.51 222.218 365.54C222.418 364.571 223.349 363.903 224.293 364.098ZM223.624 367.334C224.358 367.486 225.107 366.971 225.272 366.172C225.438 365.373 224.957 364.591 224.223 364.439C223.489 364.287 222.737 364.815 222.572 365.614C222.406 366.413 222.89 367.182 223.624 367.334Z" fill="#263238"/>
<path d="M228.952 363.655C228.933 363.747 228.838 363.809 228.746 363.79C228.497 363.739 228.355 363.764 228.257 363.839C228.16 363.915 228.059 364.072 227.991 364.399L227.912 364.779L228.424 364.885C228.529 364.906 228.591 365.001 228.572 365.093C228.55 365.198 228.455 365.26 228.351 365.238L227.839 365.133L227.191 368.263C227.172 368.355 227.078 368.417 226.986 368.398C226.881 368.377 226.818 368.282 226.837 368.19L227.485 365.059L227.013 364.962C226.921 364.943 226.859 364.848 226.881 364.743C226.9 364.651 226.995 364.589 227.086 364.608L227.558 364.706L227.637 364.326C227.713 363.959 227.835 363.698 228.046 363.536C228.258 363.375 228.546 363.367 228.822 363.424C228.914 363.443 228.976 363.537 228.954 363.642L228.952 363.655Z" fill="#263238"/>
<path d="M231.113 368.474C231.182 368.406 231.302 368.417 231.367 368.499C231.578 368.734 231.923 369.051 232.382 369.146C232.657 369.203 232.925 369.163 233.11 369.064C233.305 368.982 233.442 368.846 233.477 368.676C233.512 368.506 233.458 368.372 233.307 368.176C233.174 368.026 232.944 367.883 232.601 367.757L232.588 367.754C232.274 367.621 232.015 367.485 231.835 367.298C231.639 367.121 231.517 366.85 231.574 366.575C231.631 366.3 231.843 366.07 232.114 365.949C232.353 365.848 232.674 365.819 233.041 365.895C233.5 365.99 233.784 366.267 234.035 366.51C234.103 366.579 234.104 366.702 234.036 366.77C233.967 366.838 233.857 366.842 233.789 366.773C233.562 366.549 233.338 366.311 232.984 366.238C232.695 366.178 232.443 366.208 232.258 366.307C232.09 366.395 231.981 366.522 231.952 366.667C231.922 366.811 231.966 366.929 232.088 367.064C232.224 367.201 232.454 367.344 232.771 367.464L232.784 367.467C233.114 367.59 233.381 367.754 233.603 367.937C233.806 368.143 233.92 368.453 233.857 368.755C233.795 369.056 233.576 369.256 233.302 369.391C233.015 369.523 232.705 369.568 232.351 369.495C231.774 369.375 231.372 369.005 231.132 368.71C231.067 368.628 231.086 368.536 231.155 368.469L231.113 368.474Z" fill="#263238"/>
<path d="M234.919 368.182C235.125 367.187 236.067 366.535 237.037 366.735C238.007 366.936 238.55 367.813 238.421 368.77L238.415 368.796C238.396 368.888 238.304 368.937 238.212 368.918L235.262 368.308C235.139 369.102 235.633 369.819 236.368 369.971C236.84 370.068 237.337 369.912 237.657 369.554C237.728 369.474 237.836 369.482 237.904 369.551C237.971 369.62 237.976 369.73 237.905 369.811C237.487 370.243 236.897 370.449 236.281 370.322C235.311 370.121 234.706 369.149 234.909 368.166L234.919 368.182ZM235.359 367.973L238.086 368.537C238.106 367.844 237.632 367.227 236.977 367.092C236.321 366.956 235.631 367.319 235.359 367.973Z" fill="#263238"/>
<path d="M239.831 367.505C239.853 367.4 239.945 367.351 240.05 367.372C240.142 367.391 240.204 367.486 240.185 367.578L240.022 368.364C240.022 368.364 240.059 368.317 240.094 368.283C240.459 367.908 241.023 367.56 241.718 367.704C241.809 367.723 241.872 367.818 241.853 367.909C241.834 368.001 241.739 368.063 241.647 368.044C241.175 367.947 240.793 368.141 240.476 368.417C240.173 368.695 239.952 369.032 239.87 369.166C239.852 369.189 239.849 369.202 239.846 369.215L239.521 370.787C239.499 370.892 239.407 370.941 239.315 370.922C239.21 370.9 239.148 370.806 239.167 370.714L239.836 367.478L239.831 367.505Z" fill="#263238"/>
<path d="M243.511 371.79C243.511 371.79 243.48 371.743 243.475 371.701L242.788 368.212C242.768 368.112 242.829 368.016 242.926 368.008C243.026 367.988 243.123 368.049 243.13 368.146L243.738 371.222L245.516 368.64C245.561 368.554 245.687 368.539 245.758 368.594C245.842 368.653 245.859 368.766 245.804 368.836L243.808 371.742C243.808 371.742 243.771 371.789 243.749 371.826C243.715 371.86 243.66 371.862 243.621 371.854C243.594 371.849 243.581 371.846 243.568 371.843C243.568 371.843 243.564 371.842 243.555 371.84C243.555 371.84 243.529 371.835 243.518 371.819L243.511 371.79Z" fill="#263238"/>
<path d="M247.574 367.877C247.593 367.786 247.688 367.723 247.78 367.742C247.885 367.764 247.947 367.859 247.928 367.951L247.893 368.121C247.871 368.226 247.774 368.301 247.669 368.279C247.577 368.26 247.517 368.153 247.539 368.048L247.574 367.877ZM247.333 369.043C247.355 368.938 247.447 368.889 247.539 368.908C247.644 368.93 247.706 369.025 247.687 369.116L247.018 372.352C246.999 372.444 246.904 372.506 246.799 372.484C246.707 372.465 246.645 372.37 246.664 372.279L247.333 369.043Z" fill="#263238"/>
<path d="M248.796 371.026C249.002 370.031 249.993 369.402 251.016 369.614C251.435 369.701 251.812 369.929 252.075 370.243C252.143 370.312 252.134 370.419 252.053 370.484C251.987 370.539 251.876 370.543 251.811 370.462C251.592 370.198 251.302 370.015 250.948 369.941C250.109 369.768 249.318 370.287 249.155 371.073C248.993 371.859 249.51 372.663 250.349 372.836C250.69 372.907 251.042 372.857 251.345 372.715C251.434 372.678 251.537 372.713 251.576 372.79C251.625 372.882 251.587 372.997 251.482 373.043C251.132 373.217 250.695 373.277 250.276 373.19C249.253 372.978 248.59 372.022 248.801 371L248.796 371.026Z" fill="#263238"/>
<path d="M252.868 371.896C253.074 370.9 254.015 370.248 254.986 370.449C255.956 370.65 256.499 371.527 256.369 372.484L256.364 372.51C256.345 372.602 256.253 372.651 256.161 372.632L253.211 372.022C253.088 372.816 253.582 373.533 254.316 373.685C254.788 373.782 255.285 373.626 255.605 373.268C255.677 373.187 255.784 373.196 255.852 373.265C255.92 373.333 255.925 373.444 255.853 373.524C255.436 373.957 254.846 374.163 254.23 374.035C253.26 373.835 252.654 372.863 252.857 371.88L252.868 371.896ZM253.295 371.684L256.022 372.248C256.042 371.555 255.568 370.938 254.912 370.803C254.257 370.667 253.567 371.03 253.295 371.684Z" fill="#263238"/>
<path d="M92.7501 332.933L83.6775 331.055L81.8019 340.12L90.8745 341.997L92.7501 332.933Z" stroke="#EBEBEB" stroke-miterlimit="10"/>
<path d="M266.521 243.601C266.301 244.663 265.273 245.338 264.211 245.118C263.149 244.898 262.473 243.87 262.693 242.809C262.912 241.748 263.941 241.073 265.002 241.293C266.064 241.513 266.74 242.54 266.521 243.601Z" fill="#A6A6A6"/>
<path d="M266.824 249.142L260.203 247.772C260.593 245.954 262.375 244.806 264.184 245.181C265.994 245.555 267.174 247.316 266.811 249.139L266.824 249.142Z" fill="#A6A6A6"/>
<path d="M252.004 287.464C251.686 287.084 251.381 286.707 251.063 286.327L259.913 288.158C259.473 288.368 259.041 288.606 258.598 288.829C258.156 289.051 257.724 289.29 257.281 289.512C256.791 289.766 256.312 290.036 255.819 290.302C255.45 290.499 255.094 290.699 254.723 290.909C254.462 290.582 254.215 290.257 253.954 289.93C253.608 289.49 253.272 289.065 252.926 288.625C252.624 288.234 252.306 287.854 251.988 287.474L252.004 287.464Z" fill="#A6A6A6"/>
<path d="M259.913 288.158L258.753 293.764L249.903 291.933L251.063 286.327C251.347 286.741 251.646 287.144 251.93 287.558C252.229 287.961 252.515 288.362 252.815 288.766C253.124 289.185 253.434 289.604 253.76 290.013C253.76 290.013 253.78 290.045 253.793 290.047C253.793 290.047 253.817 290.066 253.827 290.082C253.798 290.089 253.77 290.097 253.754 290.107C253.475 290.2 253.209 290.295 252.94 290.404C252.598 290.538 252.269 290.674 251.94 290.811C251.608 290.961 251.279 291.098 250.945 291.261C250.626 291.414 250.291 291.577 249.98 291.758C250.33 291.653 250.67 291.532 251.012 291.398C251.354 291.264 251.683 291.127 252.012 290.99C252.344 290.84 252.673 290.703 253.008 290.54C253.279 290.419 253.54 290.282 253.801 290.144C253.817 290.134 253.845 290.126 253.861 290.116C254.119 290.456 254.387 290.812 254.645 291.152L254.689 291.202L254.75 291.174C255.134 290.967 255.509 290.744 255.893 290.536C255.904 290.552 255.927 290.571 255.938 290.587C256.123 290.816 256.308 291.046 256.508 291.265C256.74 291.531 256.999 291.803 257.244 292.073C257.491 292.329 257.75 292.601 258 292.844C258.261 293.103 258.525 293.348 258.804 293.584C258.591 293.294 258.348 293.011 258.116 292.745C257.884 292.478 257.626 292.206 257.381 291.937C257.133 291.681 256.875 291.409 256.625 291.166C256.421 290.96 256.202 290.764 255.996 290.571C255.972 290.553 255.962 290.537 255.938 290.518C255.938 290.518 255.967 290.511 255.983 290.5C255.983 290.5 256.015 290.48 256.028 290.482C256.476 290.233 256.926 289.972 257.377 289.71C257.812 289.458 258.247 289.207 258.669 288.952C259.106 288.688 259.528 288.434 259.965 288.169L259.913 288.158Z" fill="#A6A6A6"/>
<path d="M246.017 333.051C243.434 332.516 241.146 334.324 241.146 334.324C241.146 334.324 242.531 336.878 245.114 337.413C247.697 337.947 249.995 336.155 249.995 336.155C249.995 336.155 248.612 333.588 246.017 333.051ZM245.244 336.784C244.392 336.608 243.841 335.77 244.02 334.905C244.198 334.041 245.034 333.503 245.886 333.679C246.739 333.856 247.303 334.697 247.127 335.548C246.951 336.399 246.109 336.963 245.244 336.784Z" fill="#A6A6A6"/>
<path d="M246.55 335.429C246.436 335.979 245.901 336.319 245.363 336.208C244.826 336.096 244.472 335.559 244.583 335.022C244.694 334.485 245.232 334.132 245.77 334.243C246.307 334.354 246.661 334.892 246.55 335.429Z" fill="#A6A6A6"/>
<path d="M202.198 388.95L126.3 373.245L121.568 396.116L197.466 411.82L202.198 388.95Z" fill="#FFC727"/>
<path d="M137.504 389.401C137.768 389.182 138.167 389.237 138.373 389.499C138.797 390.024 139.599 390.708 140.428 390.866C141.018 390.988 141.577 390.927 141.985 390.738C142.394 390.549 142.611 390.294 142.673 389.992C142.705 389.835 142.688 389.722 142.647 389.591C142.606 389.459 142.525 389.32 142.366 389.164C142.071 388.871 141.535 388.555 140.867 388.28L140.841 388.275C140.312 388.056 139.83 387.806 139.415 387.501C139.012 387.2 138.679 386.83 138.516 386.359C138.406 386.036 138.368 385.687 138.442 385.333C138.588 384.626 139.106 384.104 139.741 383.812C140.373 383.533 141.14 383.46 141.9 383.617C143.028 383.85 143.753 384.574 144.262 385.089C144.499 385.33 144.499 385.726 144.259 385.963C144.031 386.203 143.632 386.216 143.384 385.96C142.863 385.442 142.359 384.969 141.651 384.822C141.126 384.714 140.622 384.773 140.259 384.944C139.895 385.115 139.71 385.349 139.661 385.585C139.631 385.729 139.638 385.826 139.672 385.929C139.705 386.032 139.802 386.161 139.924 386.295C140.182 386.567 140.682 386.862 141.287 387.11L141.313 387.116C141.892 387.358 142.41 387.629 142.836 387.95C143.272 388.286 143.629 388.674 143.815 389.163C143.929 389.473 143.96 389.849 143.885 390.216C143.73 390.962 143.175 391.53 142.498 391.827C141.835 392.127 141.023 392.219 140.184 392.045C138.912 391.782 137.983 390.92 137.425 390.245C137.206 389.981 137.262 389.583 137.51 389.375L137.504 389.401Z" fill="white"/>
<path d="M146.813 385.576C146.889 385.21 147.221 384.991 147.589 385.067C147.956 385.143 148.187 385.478 148.111 385.845L146.677 392.774C146.602 393.141 146.243 393.354 145.889 393.28C145.535 393.207 145.304 392.872 145.38 392.506L146.813 385.576Z" fill="white"/>
<path d="M149.253 389.578C149.741 387.22 152.082 385.751 154.468 386.245C155.464 386.451 156.351 386.99 156.953 387.715C157.208 388 157.171 388.443 156.886 388.699C156.606 388.928 156.16 388.904 155.907 388.605C155.477 388.107 154.884 387.738 154.189 387.594C153.35 387.421 152.537 387.58 151.902 388.009C151.243 388.419 150.766 389.071 150.601 389.87C150.435 390.67 150.619 391.432 151.062 392.069C151.475 392.715 152.157 393.184 152.996 393.358C153.586 393.48 154.172 393.423 154.701 393.246L155.034 391.635L153.356 391.288C152.989 391.212 152.75 390.848 152.826 390.481C152.902 390.114 153.263 389.889 153.63 389.965L155.964 390.447C156.344 390.526 156.589 390.864 156.51 391.243L155.973 393.837C155.957 393.916 155.92 393.963 155.893 394.025C155.888 394.052 155.885 394.065 155.856 394.072C155.793 394.182 155.708 394.26 155.574 394.314C154.72 394.739 153.719 394.887 152.723 394.681C150.336 394.187 148.768 391.923 149.256 389.565L149.253 389.578Z" fill="white"/>
<path d="M159.725 395.46C159.652 395.814 159.304 396.042 158.963 395.972C158.596 395.896 158.38 395.551 158.454 395.197L159.863 388.386C159.906 388.176 160.028 387.983 160.239 387.89C160.568 387.753 160.964 387.889 161.101 388.218L163.806 394.242L164.806 389.408C164.876 389.068 165.224 388.839 165.565 388.91C165.906 388.98 166.148 389.331 166.077 389.672L164.668 396.483C164.595 396.837 164.247 397.065 163.893 396.992C163.709 396.954 163.545 396.824 163.457 396.656C163.436 396.624 163.415 396.593 163.418 396.579L160.734 390.587L159.725 395.46Z" fill="white"/>
<path d="M174.277 399.14C172.389 398.75 171.195 396.918 171.583 395.045L172.447 390.867C172.523 390.5 172.856 390.282 173.223 390.358C173.59 390.434 173.821 390.768 173.745 391.135L172.881 395.314C172.642 396.467 173.394 397.592 174.535 397.828C175.675 398.064 176.814 397.316 177.05 396.176L177.915 391.998C177.991 391.631 178.336 391.416 178.703 391.492C179.07 391.568 179.289 391.9 179.213 392.266L178.348 396.445C177.963 398.305 176.125 399.523 174.25 399.135L174.277 399.14Z" fill="white"/>
<path d="M183.824 397.797L182.382 397.498L181.856 400.039C181.783 400.393 181.435 400.622 181.068 400.546C180.701 400.47 180.485 400.125 180.558 399.771L181.992 392.842C182.068 392.475 182.413 392.259 182.767 392.333L184.865 392.767C186.268 393.057 187.162 394.417 186.872 395.818C186.582 397.22 185.227 398.087 183.824 397.797ZM182.653 396.188L184.095 396.487C184.777 396.628 185.413 396.199 185.561 395.547C185.702 394.866 185.276 394.218 184.594 394.077L183.152 393.778L182.653 396.188Z" fill="white"/>
<path d="M248.104 146.208C256.446 147.934 264.606 142.577 266.33 134.243C268.054 125.909 262.69 117.754 254.349 116.028C246.007 114.302 237.847 119.659 236.123 127.993C234.398 136.327 239.763 144.482 248.104 146.208Z" fill="#455A64"/>
<path d="M167.618 183.141C173.468 184.352 179.191 180.595 180.401 174.749C181.61 168.904 177.848 163.184 171.997 161.974C166.147 160.763 160.423 164.52 159.214 170.366C158.005 176.211 161.767 181.931 167.618 183.141Z" fill="#EBEBEB"/>
<path d="M226.143 190.498C222.135 191.963 217.839 192.836 213.337 192.984C201.685 193.4 190.998 189.017 183.158 181.576C175.486 174.32 170.534 164.157 170.127 152.776C169.315 129.742 187.313 110.422 210.366 109.619C233.409 108.8 252.748 126.803 253.574 149.84C254.223 168.374 242.684 184.495 226.143 190.498Z" fill="#FFC727"/>
<path d="M225.239 149.208C223.819 156.072 217.095 160.486 210.225 159.065C203.355 157.643 198.935 150.923 200.355 144.06C201.775 137.196 208.499 132.782 215.369 134.203C222.239 135.625 226.659 142.345 225.239 149.208Z" fill="white"/>
<path d="M227.203 185.376L226.143 190.498C222.135 191.963 217.839 192.836 213.337 192.984C201.685 193.4 190.998 189.017 183.158 181.576L184.215 176.468C186.663 164.639 198.284 156.977 210.162 159.434C222.04 161.892 229.669 173.524 227.219 185.366L227.203 185.376Z" fill="white"/>
<path d="M246.197 230.49C246.289 226.671 247.043 222.961 248.487 219.421C248.407 223.243 247.627 226.948 246.197 230.49Z" fill="#263238"/>
<path d="M237.593 232.357C234.954 229.584 232.871 226.435 231.374 222.902C234.029 225.664 236.096 228.823 237.593 232.357Z" fill="#263238"/>
<path d="M232.835 239.76C229.013 239.665 225.3 238.911 221.756 237.467C225.582 237.548 229.289 238.329 232.835 239.76Z" fill="#263238"/>
<path d="M234.707 248.356C231.933 250.992 228.782 253.072 225.246 254.567C228.009 251.915 231.171 249.851 234.707 248.356Z" fill="#263238"/>
<path d="M242.117 253.113C242.024 256.932 241.27 260.642 239.827 264.182C239.907 260.36 240.687 256.656 242.117 253.113Z" fill="#263238"/>
<path d="M250.72 251.246C253.359 254.019 255.442 257.168 256.94 260.702C254.285 257.939 252.218 254.78 250.72 251.246Z" fill="#263238"/>
<path d="M255.479 243.844C259.301 243.938 263.014 244.693 266.557 246.136C262.732 246.055 259.024 245.274 255.479 243.844Z" fill="#263238"/>
<path d="M253.607 235.247C256.381 232.611 259.532 230.531 263.068 229.036C260.304 231.688 257.143 233.752 253.607 235.247Z" fill="#263238"/>
<path d="M336.782 131.268C336.782 131.268 332.75 196.943 330.892 202.883C329.021 208.82 309.371 266.059 309.371 266.059C309.371 266.059 293.311 258.966 289.059 255.067C286.002 252.263 275.853 239.071 275.853 239.071C275.853 239.071 305.353 202.42 308.765 194.453C312.177 186.485 321.703 146.397 325.376 138.688C329.049 130.979 337.28 129.787 337.28 129.787" fill="#FFC727"/>
<path d="M298.727 215.611C299.296 218.214 300.904 220.419 302.73 222.299C303.711 223.308 305.569 225.427 306.706 223.436C307.088 222.777 307.089 221.849 306.932 220.887C306.751 219.252 305.977 217.507 305.384 216.346C304.476 214.587 302.83 212.17 300.601 212.105C298.548 212.049 298.385 214.024 298.714 215.608L298.727 215.611Z" fill="#263238"/>
<path d="M310.051 228.677C309.854 231.477 310.014 234.474 311.563 236.898C312.285 238.031 313.272 238.55 314.207 238.06C315.233 237.726 315.897 236.238 316.245 235.149C317.071 232.547 317.157 229.683 316.418 227.044C315.954 225.39 315.024 223.012 312.923 223.056C310.216 223.124 310.168 226.789 310.038 228.674L310.051 228.677Z" fill="#263238"/>
<path d="M300.013 225.52C298.685 226.188 299.118 229.843 299.831 231.684C300.75 234.046 302.494 236.852 304.553 236.35C305.592 236.086 306.262 233.575 304.844 229.921C303.535 226.536 301.108 224.982 300.013 225.52Z" fill="#263238"/>
<path d="M290.364 243.208C290.629 244.178 291.266 245.921 292.409 246.212C293.486 246.49 293.961 245.386 294.121 244.545C294.311 243.628 294.413 242.01 294.181 240.555C294.003 238.77 293.308 237.11 291.714 236.684C288.55 235.852 290.021 241.962 290.364 243.208Z" fill="#263238"/>
<path d="M353.82 444.787C353.82 444.787 371.953 501.197 371.958 501.239C374.441 512.366 376.418 522.173 376.975 527.343C376.97 527.369 376.991 527.4 376.985 527.427C377.196 529.383 377.193 530.652 376.933 531.049C376.925 531.089 376.919 531.115 376.888 531.135C374.069 534.118 285.611 556.52 282.262 556.251C278.908 556.008 279.385 546.435 282.113 542.833C284.882 539.227 314.892 515.508 314.892 515.508L297.324 459.009L353.833 444.79L353.82 444.787Z" fill="#EB9481"/>
<path d="M283.604 556.242C286.942 556.495 374.069 534.118 376.872 531.146C376.906 531.112 376.912 531.086 376.93 531.062C377.203 530.668 377.183 529.38 376.996 527.442C377.004 527.403 377.006 527.39 376.986 527.358C376.428 522.189 374.452 512.382 371.985 501.244C371.987 501.231 369 491.42 367.707 487.956L311.111 503.784L314.889 515.521C314.889 515.521 286.214 539.202 283.47 542.814C280.714 546.423 280.253 555.985 283.617 556.244L283.604 556.242Z" fill="#EBEBEB"/>
<path d="M282.363 554.837C285.744 555.018 374.367 530.368 377.138 527.281C378.212 526.123 375.361 513.007 371.467 497.272C371.418 497.111 371.385 496.94 371.336 496.78L313.982 512.041L314.275 513.003C314.275 513.003 284.591 537.595 281.894 541.313C279.229 545.009 278.967 554.667 282.35 554.835L282.363 554.837Z" fill="#FFC727"/>
<path d="M282.406 551.131C297.246 546.607 357.509 529.776 372.518 526.42C372.646 526.392 372.656 526.476 372.541 526.507C357.929 531.311 297.533 547.663 282.467 551.362C282.149 551.446 282.087 551.215 282.395 551.115L282.406 551.131Z" fill="white"/>
<path d="M309.532 514.521C315.1 511.794 322.545 510.698 328.2 513.631C328.423 513.745 328.25 514.051 328.045 514.049C321.732 513.836 315.99 514.164 309.76 515.265C309.321 515.338 309.134 514.726 309.529 514.534L309.532 514.521Z" fill="#263238"/>
<path d="M305.997 518.257C311.565 515.529 319.011 514.434 324.666 517.366C324.888 517.48 324.716 517.786 324.511 517.785C318.198 517.571 312.456 517.899 306.226 519.001C305.787 519.074 305.599 518.461 305.994 518.27L305.997 518.257Z" fill="#263238"/>
<path d="M302.475 521.995C308.044 519.268 315.492 518.159 321.144 521.104C321.367 521.218 321.194 521.524 320.989 521.523C314.676 521.309 308.934 521.637 302.704 522.739C302.265 522.812 302.078 522.199 302.473 522.008L302.475 521.995Z" fill="#263238"/>
<path d="M359.485 510.774C365.018 505.772 372.798 514.362 367.265 519.364C361.732 524.366 353.952 515.776 359.485 510.774Z" fill="white"/>
<path opacity="0.1" d="M309.846 516.704L296.656 551.443C288.66 553.545 283.161 554.88 282.363 554.837C278.98 554.67 279.229 545.01 281.894 541.313C283.937 538.512 301.464 523.711 309.846 516.704Z" fill="black"/>
<path d="M280.126 552.039C278.707 553.084 280.537 558.312 281.799 558.422C283.061 558.533 379.576 531.227 381.115 530.398C382.653 529.569 380.403 523.858 378.417 524.076C376.428 524.306 280.129 552.026 280.129 552.026L280.126 552.039Z" fill="#263238"/>
<path d="M368.8 483.265L304.833 502.075C304.833 502.075 253.544 383.496 257.715 356.002C263.482 318.019 320.266 205.41 320.266 205.41L371.549 215.653C371.549 215.653 325.353 333.99 322.713 355.272C321.338 366.407 368.8 483.265 368.8 483.265Z" fill="#37474F"/>
<path d="M302.26 489.14C305.665 487.617 336.246 477.458 359.129 471.661C359.287 471.625 359.338 471.841 359.19 471.892C352.022 474.753 306.645 488.626 302.374 489.382C302.232 489.407 302.112 489.191 302.263 489.126L302.26 489.14Z" fill="#263238"/>
<path d="M321.017 327.588C327.103 310.134 333.433 292.757 340.116 275.522C346.829 258.21 353.699 240.932 361.132 223.906C362.041 221.827 362.973 219.766 363.895 217.689C364.045 217.365 364.534 217.575 364.398 217.902C357.585 234.906 350.696 251.88 344.124 268.974C337.564 286.071 331.181 303.246 325.077 320.519C323.563 324.796 322.063 329.075 320.588 333.359C319.058 337.783 317.443 342.216 316.442 346.79C315.476 351.193 315.282 355.633 315.976 360.079C316.656 364.455 318.052 368.678 319.485 372.853C325.515 390.425 352.836 467.45 353.499 469.663C353.538 469.808 353.34 469.903 353.276 469.753C346.517 452.264 325.83 396.568 319.723 378.708C316.973 370.654 313.613 362.377 313.969 353.722C314.329 344.713 318.074 335.995 321.001 327.598L321.017 327.588Z" fill="#263238"/>
<path d="M306.852 470.447C306.852 470.447 295.352 528.935 295.344 528.974C292.72 540.07 290.236 549.76 288.472 554.653C288.466 554.68 288.461 554.706 288.455 554.732C287.8 556.577 287.249 557.72 286.828 557.974C286.796 557.995 286.777 558.018 286.748 558.026C282.919 559.487 193.516 541.125 190.612 539.432C187.693 537.749 192.303 529.346 196.336 527.298C200.395 525.256 237.751 516.976 237.751 516.976L249.794 458.641L306.865 470.45L306.852 470.447Z" fill="#EB9481"/>
<path d="M297.706 516.965C297.706 516.965 295.352 528.935 295.344 528.974C292.72 540.07 290.236 549.76 288.472 554.653C288.466 554.68 288.461 554.706 288.455 554.732C287.688 556.526 287.102 557.703 286.828 557.974C286.796 557.995 286.777 558.018 286.748 558.026C282.919 559.487 193.516 541.125 190.612 539.432C187.693 537.749 192.303 529.345 196.336 527.298C200.395 525.256 237.751 516.976 237.751 516.976L240.269 504.807L297.719 516.967L297.706 516.965Z" fill="#EBEBEB"/>
<path d="M190.568 539.313C193.519 540.976 283.931 558.03 287.79 556.493C289.259 555.936 292.512 542.923 295.997 527.074C296.032 526.904 296.064 526.747 296.1 526.577L237.891 514.915L237.727 515.905C237.727 515.905 200.206 524.848 196.144 526.971C192.121 529.103 187.617 537.651 190.571 539.3L190.568 539.313Z" fill="#FFC727"/>
<path d="M192.252 536.001C207.567 538.5 269.082 550.04 284.028 553.666C284.146 553.69 284.127 553.782 284.009 553.757C268.786 551.605 207.358 539.577 192.203 536.237C191.888 536.172 191.924 535.933 192.255 535.988L192.252 536.001Z" fill="white"/>
<path d="M232.793 515.171C238.997 515.185 246.163 517.487 249.94 522.626C250.091 522.821 249.801 523.034 249.618 522.928C244.055 519.947 238.747 517.715 232.675 515.939C232.25 515.81 232.354 515.176 232.793 515.171Z" fill="#263238"/>
<path d="M227.966 516.959C234.17 516.972 241.336 519.275 245.113 524.414C245.264 524.609 244.974 524.822 244.791 524.716C239.228 521.734 233.92 519.502 227.848 517.727C227.423 517.598 227.527 516.964 227.966 516.959Z" fill="#263238"/>
<path d="M223.152 518.75C229.356 518.763 236.522 521.065 240.299 526.204C240.45 526.399 240.16 526.613 239.977 526.506C234.414 523.525 229.106 521.293 223.034 519.517C222.609 519.389 222.713 518.754 223.152 518.75Z" fill="#263238"/>
<path d="M189.803 535.808C188.068 536.132 187.397 541.621 188.478 542.282C189.558 542.943 288.217 561.103 289.966 561.041C291.716 560.98 292.23 554.857 290.347 554.181C288.463 553.504 189.803 535.808 189.803 535.808Z" fill="#263238"/>
<path d="M279.248 533.881C286.424 531.842 289.603 542.976 282.427 545.016C275.251 547.055 272.072 535.92 279.248 533.881Z" fill="white"/>
<path d="M320.935 205.412C320.935 205.412 320.932 205.425 320.937 205.467C321.059 206.599 329.042 260.786 330.607 261.943C332.387 263.254 274.966 325.955 265.572 358.666C259.563 379.578 237.837 500.506 237.837 500.506L300.139 513.397C300.139 513.397 319.521 404.661 325.182 370.098C327.38 356.702 384.398 299.518 393.444 258.444C396.3 245.498 391.874 219.845 391.874 219.845L320.922 205.41L320.935 205.412Z" fill="#37474F"/>
<path d="M325.018 369.108C325.132 368.558 325.6 368.477 325.522 369.049C323.09 387.874 319.602 406.385 316.65 425.144C313.696 443.847 312.276 448.198 309.27 466.89C307.573 477.467 304.954 487.88 303.019 498.421C302.987 498.578 302.745 498.556 302.751 498.393C304.635 479.509 322.844 379.613 325.002 369.118L325.018 369.108Z" fill="#263238"/>
<path d="M265.421 359.399C266.511 354.858 267.745 350.346 269.503 346.011C271.214 341.775 273.497 337.808 275.995 333.995C281.238 326.037 287.053 318.416 292.7 310.747C298.412 302.968 304.207 295.247 310.119 287.619C313.439 283.334 316.773 279.051 320.129 274.787C323.523 270.476 327.072 266.279 330.573 262.045C330.716 261.884 330.977 262.074 330.844 262.252C325.073 269.991 319.362 277.77 313.591 285.509C307.819 293.249 302.118 301.044 296.42 308.825C290.815 316.49 285.196 324.151 279.782 331.951C277.19 335.69 274.702 339.519 272.733 343.619C270.712 347.832 269.31 352.295 268.105 356.799C265.301 367.311 262.793 377.911 259.565 388.294C259.538 388.425 259.305 388.363 259.332 388.232C261.004 378.565 263.148 368.928 265.423 359.386L265.421 359.399Z" fill="#263238"/>
<path d="M244.892 489.14C248.608 489.417 276.417 494.174 299.299 499.946C299.456 499.979 299.397 500.199 299.25 500.182C291.587 499.293 248.996 490.781 244.861 489.42C244.72 489.377 244.716 489.131 244.889 489.153L244.892 489.14Z" fill="#263238"/>
<path d="M322.571 257.371C328.909 260.308 334.933 264.163 340.658 268.148C340.885 268.304 340.689 268.66 340.443 268.527C334.323 265.13 328.074 261.829 322.146 258.103C321.686 257.816 322.084 257.147 322.571 257.371Z" fill="#263238"/>
<path d="M325.119 213.408C325.165 213.186 325.548 213.183 325.525 213.424C324.694 221.011 324.506 227.734 324.42 234.887C324.375 238.211 325.175 256.68 331.017 255.936C331.999 255.811 332.58 254.921 332.876 253.493C333.231 251.777 332.796 249.583 332.692 247.841C332.441 243.964 332.327 240.088 332.391 236.209C332.509 228.966 333.217 221.777 334.817 214.705C334.866 214.469 335.21 214.527 335.187 214.768C334.17 224.706 333.41 234.657 333.896 244.661C334.133 249.464 335.779 256.839 330.757 257.057C325.638 257.282 323.596 245.016 323.313 241.693C322.528 232.406 323.455 222.571 325.129 213.424L325.119 213.408Z" fill="#263238"/>
<path d="M330.811 256.399C331.205 257.668 331.493 258.985 331.713 260.301C331.885 261.32 332.148 262.426 331.934 263.461C331.893 263.657 331.62 263.655 331.53 263.5C330.939 262.586 330.776 261.391 330.513 260.353C330.203 259.141 329.851 257.935 329.57 256.715C329.381 255.911 330.578 255.613 330.811 256.399Z" fill="#263238"/>
<path d="M314.849 386.073C316.364 377.166 317.302 367.676 321.967 359.735C324.285 355.802 327.287 352.325 330.151 348.793C333.176 345.075 336.152 341.333 339.106 337.56C350.906 322.49 362.278 307.044 372.892 291.1C377.993 283.427 382.789 275.445 385.855 266.709C389.059 257.564 390.157 247.765 389.954 238.107C389.907 235.693 389.817 233.284 389.66 230.874C389.643 230.693 389.911 230.653 389.941 230.837C390.939 240.154 390.991 249.618 389.216 258.853C387.499 267.746 383.781 275.937 379.183 283.687C374.397 291.753 368.912 299.429 363.488 307.076C357.892 314.961 352.178 322.753 346.31 330.431C340.476 338.075 334.397 345.519 328.362 353.012C325.44 356.628 322.68 360.387 320.945 364.741C319.181 369.171 318.341 373.887 317.552 378.559C314.235 398.294 302.445 463.798 298.653 483.38C298.167 485.861 297.691 488.358 297.205 490.839C297.159 491.062 296.826 491.02 296.859 490.795C299.643 471.059 311.508 405.721 314.839 386.057L314.849 386.073Z" fill="#263238"/>
<path d="M362.298 227.193C362.328 227.049 362.543 227.135 362.531 227.255C362.152 232.791 361.414 238.471 363.012 243.897C364.471 248.87 368.041 252.628 372.171 255.6C374.552 257.308 377.099 258.805 379.642 260.26C379.825 260.366 379.723 260.659 379.509 260.574C374.578 258.434 369.581 256.156 365.709 252.336C361.55 248.252 360.112 242.778 360.472 237.074C360.688 233.718 361.408 230.438 362.308 227.209L362.298 227.193Z" fill="#263238"/>
<path d="M394.182 224.68C394.012 224.904 307.441 230.254 306.646 229.475C306.578 229.406 303.559 226.883 304.136 220.391C304.3 218.608 308.182 211.611 309.378 206.094C313.588 186.736 320.281 150.556 329.555 132.3C332.047 127.393 344.49 123.752 349.856 128.81C374.038 151.557 394.404 224.398 394.179 224.693L394.182 224.68Z" fill="#EBEBEB"/>
<path d="M346.043 126.423C346.043 126.423 340.552 168.356 340.648 173.375C340.715 176.886 343.021 212.523 342.765 237.877C342.653 248.727 338.297 264.955 338.297 264.955C338.297 264.955 368.742 261.597 378.717 257.46C384.504 255.064 398.85 242.556 398.85 242.556C398.85 242.556 389.096 198.712 381.952 181.566C374.821 164.423 360.596 134.324 352.217 128.629C348.393 126.035 346.046 126.41 346.046 126.41L346.043 126.423Z" fill="#FFC727"/>
<path d="M382.754 206.497C381.272 206.791 380.247 208.041 379.581 209.611C378.365 211.586 377.721 214.171 377.623 215.967C377.547 217.194 377.698 219.042 379.307 219.061C381.011 219.086 382.298 216.634 382.967 215.379C383.661 214.075 386.645 205.731 382.754 206.497ZM368.525 214.016C366.559 215.057 366.152 217.951 366.113 219.924C366.089 221.23 366.16 223.13 366.728 224.682C367.013 225.615 367.418 226.436 368.053 226.868C369.961 228.151 370.685 225.446 371.127 224.103C371.941 221.621 372.402 218.93 371.763 216.339C371.363 214.768 370.35 213.055 368.525 214.016ZM377.71 199.293C376.471 198.873 375.533 199.703 374.898 200.924C374.006 202.392 373.509 204.461 373.421 205.481C373.331 206.446 373.202 208.127 374.175 208.779C375.16 209.434 376.232 208.481 376.789 207.708C377.809 206.28 380.479 200.248 377.71 199.293ZM344.027 261.906C342.592 263.754 340.886 261.625 339.649 259.279C340.195 256.906 340.807 254.014 341.336 250.927C341.466 251.09 341.599 251.241 341.706 251.386C342.805 252.815 344.011 255.182 344.397 257.475C344.923 259.1 344.957 260.719 344.027 261.906ZM353.644 262.94L350.416 263.406C348.867 261.842 347.858 258.328 347.742 257.102C347.664 256.157 347.836 254.731 349.016 254.579C350.183 254.424 351.172 255.79 351.747 256.578C352.354 257.414 353.331 259.296 353.622 260.996C353.791 261.7 353.826 262.39 353.644 262.94ZM360.568 190.624C361.83 190.803 362.628 192.826 362.978 193.841C363.558 195.532 363.719 197.395 363.587 199.157C363.51 200.193 363.435 202.404 362.334 202.969C361.003 203.65 360.119 202.374 359.607 200.752C358.346 198.455 358.168 195.414 358.688 192.967C358.873 192.076 359.335 190.437 360.573 190.597L360.568 190.624ZM362.306 229.271C360.399 230.161 360.613 232.691 360.933 234.383C361.444 237.07 362.79 239.616 364.678 241.592C365.479 242.413 366.725 243.463 367.794 243.315C368.855 243.344 369.507 242.44 369.646 241.103C369.967 238.233 368.774 235.473 367.375 233.052C366.417 231.406 364.768 228.142 362.306 229.271ZM372.594 231.878C372.937 235.774 374.649 237.74 375.693 237.519C377.754 237.071 378.096 233.768 377.879 231.251C377.71 229.29 376.491 225.8 375.002 225.793C373.773 225.784 372.29 228.264 372.61 231.868L372.594 231.878ZM347.948 159.833C347.219 161.307 345.882 162.683 344.923 163.55C343.978 164.42 342.645 165.442 341.246 165.863C341.47 163.655 341.752 161.105 342.076 158.413C342.851 157.904 343.668 157.458 344.487 157.067C345.765 156.444 348.228 155.11 348.621 157.376C348.739 158.125 348.437 158.991 347.948 159.833ZM354.323 159.881C356.282 160.655 357.964 158.736 358.976 157.347C360.571 155.123 361.49 152.403 361.618 149.671C361.664 148.519 361.562 146.9 360.716 146.233C360.004 145.444 358.892 145.596 357.834 146.415C355.533 148.152 354.357 150.928 353.568 153.619C353.039 155.449 351.806 158.896 354.334 159.897L354.323 159.881ZM349.113 150.635C346.719 153.349 343.895 153.981 343.053 153.096C342.907 152.943 342.814 152.733 342.781 152.494C342.781 152.494 342.768 152.491 342.784 152.481C342.837 151.959 342.906 151.427 342.962 150.892L342.97 150.853C343.388 149.559 344.264 148.102 345.016 147.246C346.692 145.353 349.313 143.327 351.064 144.509C351.953 145.103 351.703 147.701 349.113 150.635ZM389.465 234.263C388.216 235.343 388.335 237.143 388.96 238.816C389.392 240.23 390.213 241.616 390.78 242.375C391.296 243.056 392.215 243.833 393.06 243.12C393.955 242.363 393.751 240.504 393.571 239.524C393.327 238.258 391.944 232.126 389.478 234.265L389.465 234.263ZM372.882 184.962C371.632 185.455 371.229 186.874 371.266 188.343C371.222 189.55 371.473 190.845 371.718 191.578C371.934 192.252 372.43 193.092 373.278 192.762C374.17 192.414 374.519 190.929 374.645 190.121C374.793 189.073 375.385 183.964 372.898 184.952L372.882 184.962Z" fill="#263238"/>
<path d="M332.9 145.805C337.755 145.662 344.164 134.312 345.75 127.837C345.842 127.392 344.569 124.888 342.731 120.028C341.634 117.069 340.474 113.755 339.641 110.646L321.433 120.607C321.433 120.607 325.102 126.598 326.522 132.027C326.632 132.487 326.708 132.913 326.728 133.34C326.744 133.398 326.741 133.48 326.751 133.564C327.007 136.089 328.204 145.967 332.894 145.831L332.9 145.805Z" fill="#EB9481"/>
<path d="M328.22 136.504C327.871 136.609 327.526 136.688 327.195 136.77C326.959 135.396 326.823 134.207 326.756 133.537C326.746 133.453 326.749 133.372 326.734 133.314C326.71 132.9 326.637 132.461 326.527 132.001C325.105 126.584 321.436 120.594 321.436 120.594L339.657 110.636C339.837 111.288 340.016 111.939 340.219 112.61C340.679 119.439 340.006 133.069 328.22 136.504Z" fill="#263238"/>
<path d="M336.108 90.1223C340.106 96.4406 341.945 117.352 338.248 123.13C332.903 131.517 321.425 135.317 313.612 128.277C306.029 121.449 304.128 94.1597 308.502 88.6173C314.935 80.4549 330.206 80.7872 336.111 90.1092L336.108 90.1223Z" fill="#EB9481"/>
<path d="M319.915 108.19C319.915 108.19 320.027 108.241 320.043 108.298C320.204 109.698 320.64 111.291 321.967 111.552C322.007 111.56 322.019 111.631 321.964 111.633C320.389 111.648 319.84 109.541 319.915 108.19Z" fill="#263238"/>
<path d="M320.955 106.534C323.179 106.024 324.03 110.503 321.976 110.98C319.951 111.449 319.09 106.954 320.955 106.534Z" fill="#263238"/>
<path d="M311.93 109.775C311.93 109.775 311.83 109.864 311.845 109.922C312.149 111.296 312.275 112.934 311.105 113.634C311.073 113.655 311.086 113.726 311.13 113.708C312.63 113.198 312.437 111.028 311.93 109.775Z" fill="#263238"/>
<path d="M310.418 108.561C308.15 108.816 308.83 113.327 310.93 113.092C313 112.865 312.32 108.353 310.418 108.561Z" fill="#263238"/>
<path d="M322.223 103.313C321.585 103.29 320.995 103.168 320.355 103.09C319.636 102.996 319.064 102.987 318.494 102.501C318.194 102.234 318.166 101.64 318.394 101.332C318.929 100.596 319.838 100.498 320.699 100.566C321.639 100.651 322.34 100.961 323.011 101.618C323.658 102.258 323.063 103.35 322.22 103.326L322.223 103.313Z" fill="#263238"/>
<path d="M307.972 105.118C308.577 104.902 309.091 104.598 309.668 104.321C310.321 104.006 310.866 103.818 311.246 103.173C311.455 102.82 311.286 102.252 310.977 102.024C310.24 101.489 309.339 101.685 308.557 102.029C307.698 102.411 307.128 102.922 306.697 103.748C306.282 104.563 307.201 105.409 307.985 105.121L307.972 105.118Z" fill="#263238"/>
<path d="M324.101 120.203C323.828 120.597 323.586 121.107 323.094 121.237C322.615 121.37 322.01 121.259 321.535 121.174C321.482 121.163 321.456 121.226 321.49 121.26C321.954 121.725 322.777 121.909 323.398 121.683C324.006 121.453 324.212 120.854 324.256 120.248C324.272 120.17 324.151 120.158 324.112 120.218L324.101 120.203Z" fill="#263238"/>
<path d="M321.842 116.32C321.29 117.668 320.273 118.55 319.081 119.027C318.544 119.244 317.97 119.371 317.398 119.43C317.285 119.448 317.174 119.452 317.064 119.457C316.967 119.464 316.87 119.471 316.746 119.473C316.581 119.48 316.469 119.361 316.404 119.211C316.404 119.211 316.383 119.111 316.394 119.059L316.379 118.933C316.147 117.874 315.943 116.22 315.943 116.22C315.587 116.487 313.764 117.763 313.689 117.201C313.084 112.527 312.411 107.32 312.799 102.538C312.805 102.375 313.039 102.369 313.062 102.524C313.818 106.997 313.788 111.567 314.481 116.081C315.074 115.726 316.029 115.076 316.584 114.973C316.744 114.992 316.923 118.157 317.072 118.625C317.072 118.625 317.069 118.638 317.09 118.67C318.931 118.559 320.178 117.752 321.698 116.222C321.788 116.118 321.908 116.197 321.855 116.323L321.842 116.32Z" fill="#263238"/>
<path d="M339.421 110.587C335.488 110.497 334.286 100.714 334.286 100.714C334.286 100.714 329.256 99.4546 326.699 90.7298C326.699 90.7298 324.411 99.8728 308.109 99.7644C308.109 99.7644 306.739 96.0795 308.324 91.2579C308.324 91.2579 306.756 94.6079 305.262 100.377C305.262 100.377 299.894 87.4647 310.764 81.4496C315.085 79.0655 322.033 78.6589 333.103 82.6433C333.103 82.6433 334.395 76.1354 335.701 76.829C337.006 77.5227 335.344 83.6398 335.344 83.6398C335.344 83.6398 339.781 81.6893 340.665 82.5689C341.425 83.327 337.129 84.9925 337.129 84.9925C337.129 84.9925 344.432 86.4353 344.187 94.6897C343.959 102.265 341.353 110.632 339.405 110.597L339.421 110.587Z" fill="#263238"/>
<path d="M335.85 85.0284C339.997 84.4113 344.079 87.018 345.166 91.0812C345.766 93.3363 345.471 95.8843 344.992 98.1346C344.466 100.608 343.459 102.831 342.34 105.071C342.273 105.194 342.093 105.075 342.159 104.952C343.201 102.955 343.807 100.69 344.186 98.4596C344.549 96.3765 344.808 94.0669 344.478 91.9633C343.811 87.7822 340.056 84.9836 335.872 85.2515C335.733 85.2637 335.724 85.0433 335.853 85.0153L335.85 85.0284Z" fill="#263238"/>
<path d="M319.683 78.1864C322.473 78.4494 325.269 79.2057 327.883 80.1837C330.385 81.1111 332.869 82.2535 334.932 83.978C335.037 84.0679 334.933 84.2377 334.813 84.1582C330.424 81.5836 325.287 80.1791 320.274 79.3605C315.595 78.5836 310.232 79.1951 307.202 83.267C307.147 83.3375 307.053 83.2634 307.095 83.1902C309.73 78.9818 315.005 77.7374 319.673 78.1706L319.683 78.1864Z" fill="#263238"/>
<path d="M336.202 108.172C336.202 108.172 339.089 100.56 342.437 101.431C345.784 102.301 344.757 112.552 341.631 114.705C338.506 116.859 336.458 114.004 336.458 114.004L336.202 108.172Z" fill="#EB9481"/>
<path d="M342.076 104.361C342.076 104.361 342.16 104.42 342.113 104.451C339.939 106.036 339.229 108.608 338.934 111.156C339.429 110.083 340.28 109.344 341.697 109.897C341.775 109.913 341.735 110.041 341.667 110.041C340.619 110.084 339.944 110.436 339.487 111.393C339.154 112.075 339.018 112.867 338.84 113.595C338.788 113.844 338.355 113.822 338.383 113.555C338.386 113.542 338.391 113.516 338.397 113.489C337.555 110.419 338.86 105.499 342.092 104.351L342.076 104.361Z" fill="#263238"/>
<path d="M358.576 149.902C360.396 174.538 355.549 219.24 350.547 226.497C346.113 232.928 320.253 244.652 305.526 250.743C300.729 252.715 287.009 216.342 292.244 214.501C299.365 212 325.231 201.698 326.118 200.188C327.103 198.534 335.903 166.178 343.283 148.021C349.982 131.568 357.877 140.591 358.573 149.915L358.576 149.902Z" fill="#EB9481"/>
<path d="M241.42 243.53C243.921 247.435 253.025 240.44 253.025 240.44C253.025 240.44 251.648 243.324 252.643 246.248C253.785 249.585 259.511 249.268 259.511 249.268C259.511 249.268 258.723 252.479 260.09 255.452C261.504 258.532 267.332 259.041 267.332 259.041C267.332 259.041 268.242 262.439 271.264 264.157C276.423 267.11 284.145 262.233 289.538 260.152C295.303 257.93 303.795 252.502 307.073 249.411L294.384 214.398C294.384 214.398 265.917 215.529 260.359 219.529C255.672 222.889 237.591 237.588 241.417 243.543L241.42 243.53Z" fill="#EB9481"/>
<path d="M253.028 240.291C257.147 235.515 262.412 231.742 267.529 228.156C267.643 228.07 267.768 228.26 267.657 228.333C262.527 231.847 258.218 236.816 253.242 240.512C253.11 240.622 252.933 240.421 253.041 240.293L253.028 240.291Z" fill="#263238"/>
<path d="M259.393 248.779C260.363 247.723 261.663 246.995 262.87 246.247C264.159 245.435 265.456 244.651 266.779 243.873C269.41 242.328 272.079 240.858 274.79 239.452C274.911 239.395 275.041 239.559 274.917 239.629C272.29 241.162 269.693 242.742 267.135 244.398C265.857 245.226 264.591 246.057 263.323 246.901C262.149 247.683 260.972 248.614 259.638 249.116C259.445 249.186 259.253 248.927 259.396 248.766L259.393 248.779Z" fill="#263238"/>
<path d="M267.43 258.965C268.229 258.011 269.603 257.448 270.684 256.852C271.904 256.176 273.111 255.497 274.32 254.804C276.74 253.42 279.143 252.046 281.51 250.582C281.634 250.512 281.749 250.686 281.638 250.759C279.249 252.259 276.868 253.788 274.456 255.27C273.268 255.993 272.092 256.72 270.893 257.428C269.878 258.038 268.685 258.911 267.497 259.102C267.426 259.115 267.39 259.026 267.427 258.979L267.43 258.965Z" fill="#263238"/>
<path d="M359.302 206.057L323.077 199.026C323.077 199.026 335.955 160.178 344.536 143.882C351.745 130.184 360.2 133.327 361.107 153.13C361.96 171.87 359.313 206.073 359.313 206.073L359.302 206.057Z" fill="#FFC727"/>
<path d="M359.684 200.972L359.607 200.752C358.343 198.468 358.168 195.413 358.686 192.98C358.87 192.157 359.27 190.683 360.313 190.598C360.095 194.692 359.857 198.29 359.684 200.972ZM338.43 161.961C339.865 159.717 342.135 158.193 344.5 157.07C345.775 156.46 348.255 155.115 348.634 157.379C348.765 158.13 348.45 158.994 347.975 159.838C347.246 161.313 345.908 162.689 344.949 163.556C343.484 164.892 341.11 166.586 338.998 165.89C337.041 165.239 337.589 163.317 338.446 161.951L338.43 161.961ZM353.558 153.603C354.347 150.912 355.52 148.149 357.824 146.399C358.882 145.58 359.991 145.441 360.705 146.217C361.552 146.884 361.654 148.503 361.607 149.655C361.482 152.374 360.574 155.11 358.966 157.331C357.951 158.733 356.272 160.64 354.313 159.865C351.785 158.864 353.018 155.418 353.547 153.587L353.558 153.603ZM343.053 153.096C342.033 152.011 343.712 148.725 345.016 147.246C346.692 145.353 349.3 143.324 351.054 144.493C351.94 145.1 351.692 147.685 349.103 150.619C346.709 153.334 343.885 153.965 343.043 153.08L343.053 153.096ZM333.267 189.619C332.86 190.532 331.975 192.166 330.8 192.291C329.697 192.405 329.389 191.248 329.348 190.393C329.309 189.456 329.438 187.843 329.88 186.432C330.322 184.693 331.256 183.152 332.893 182.971C336.138 182.618 333.784 188.442 333.267 189.619Z" fill="#263238"/>
<path d="M329.444 192.503C331.82 192.584 334.169 193.057 336.488 193.414C338.901 193.776 341.296 194.231 343.693 194.672C346.09 195.113 355.549 197.235 357.914 197.765C358.019 197.787 357.965 197.98 357.861 197.959C355.447 197.596 345.857 196.172 343.515 195.728C341.173 195.285 338.813 194.865 336.501 194.345C334.149 193.817 331.689 193.418 329.446 192.626C329.394 192.615 329.402 192.507 329.47 192.508L329.444 192.503Z" fill="#263238"/>
<path d="M361.268 159.952C361.438 175.382 361.448 190.929 359.427 206.247C358.174 205.96 356.907 205.671 355.66 205.358C356.882 205.529 358.115 205.715 359.332 205.913C359.773 191.757 360.36 174.776 361.265 159.965L361.268 159.952Z" fill="#263238"/>
<path d="M362.468 162.277C362.608 164.642 362.177 167.052 361.048 169.141C361.305 166.776 361.7 164.536 362.468 162.277Z" fill="#263238"/>
</g>
<defs>
<clipPath id="clip0_60_56">
<rect width="379" height="514" fill="white" transform="translate(104.147) rotate(11.6903)"/>
</clipPath>
</defs>
</svg>
